<svg xmlns="http://www.w3.org/2000/svg" viewBox="0 0 1074 1074">
  <defs>
    <style>
      .cls-1 {
        isolation: isolate;
      }

      .cls-2 {
        fill: #505050;
      }

      .cls-3 {
        fill: #030303;
      }

      .cls-4 {
        fill: #141414;
      }

      .cls-5 {
        fill: #050505;
      }

      .cls-6 {
        fill: #0d0d0d;
      }

      .cls-7 {
        fill: #0e0e0e;
      }

      .cls-8 {
        fill: #101010;
      }

      .cls-9 {
        fill: #040404;
      }

      .cls-10 {
        fill: #0a0a0a;
      }

      .cls-11 {
        fill: #454545;
      }

      .cls-12 {
        fill: #0b0b0b;
      }

      .cls-13 {
        fill: #282828;
      }

      .cls-14 {
        fill: #1b1b1b;
      }

      .cls-15 {
        fill: #0f0f0f;
      }

      .cls-16 {
        fill: #3a3a3a;
      }

      .cls-17 {
        fill: #272727;
      }

      .cls-18 {
        fill: #292929;
      }

      .cls-19 {
        fill: #636363;
      }

      .cls-20, .cls-21 {
        fill: none;
        stroke-width: 0;
      }

      .cls-20 {
        stroke: #505050;
      }

      .cls-21 {
        stroke: #383838;
      }

      .cls-22 {
        fill: #262626;
      }

      .cls-23 {
        fill: #353535;
      }

      .cls-24 {
        fill: #232323;
      }

      .cls-25 {
        fill: #222;
      }

      .cls-26 {
        fill: #2d2d2d;
      }

      .cls-27 {
        fill: #474747;
      }

      .cls-28 {
        fill: #4f4f4f;
      }

      .cls-29 {
        fill: #2a2a2a;
      }

      .cls-30 {
        fill: #252525;
      }

      .cls-31 {
        fill: #2f2f2f;
      }

      .cls-32 {
        fill: #242424;
      }

      .cls-33 {
        fill: #515151;
      }

      .cls-34 {
        fill: #2b2b2b;
      }

      .cls-35 {
        fill: #1f1f1f;
      }

      .cls-36 {
        fill: #020202;
      }

      .cls-37 {
        fill: #404040;
      }

      .cls-38 {
        fill: #434343;
      }

      .cls-39 {
        fill: #1e1e1e;
      }

      .cls-40 {
        fill: #2e2e2e;
      }

      .cls-41 {
        fill: #333;
      }

      .cls-42 {
        fill: #444;
      }

      .cls-43 {
        fill: #2c2c2c;
      }

      .cls-44 {
        fill: #3c3c3c;
      }

      .cls-45 {
        fill: #171717;
      }

      .cls-46 {
        fill: #313131;
      }

      .cls-47 {
        fill: #393939;
      }

      .cls-48 {
        fill: #5f5f5f;
      }

      .cls-49 {
        fill: #5b5b5b;
      }

      .cls-50 {
        fill: #363636;
      }

      .cls-51 {
        fill: #4b4b4b;
      }

      .cls-52 {
        fill: #5e5e5e;
      }

      .cls-53 {
        fill: #070707;
      }

      .cls-54 {
        fill: #212121;
      }

      .cls-55 {
        fill: #080808;
      }

      .cls-56 {
        fill: #696969;
      }

      .cls-57 {
        fill: #4a4a4a;
      }

      .cls-58 {
        fill: #383838;
      }

      .cls-59 {
        fill: #606060;
      }

      .cls-60 {
        fill: #161616;
      }

      .cls-61 {
        fill: #6a6a6a;
      }

      .cls-62 {
        fill: #4c4c4c;
      }

      .cls-63 {
        fill: #575757;
      }

      .cls-64 {
        fill: #6d6d6d;
      }

      .cls-65 {
        fill: #666;
      }

      .cls-66 {
        fill: #131313;
      }

      .cls-67 {
        fill: #6e6e6e;
      }

      .cls-68 {
        fill: #1c1c1c;
      }

      .cls-69 {
        fill: #3e3e3e;
      }

      .cls-70 {
        fill: #3f3f3f;
      }

      .cls-71 {
        fill: #0c0c0c;
      }

      .cls-72 {
        fill: #6c6c6c;
      }

      .cls-73 {
        fill: #4d4d4d;
      }

      .cls-74 {
        fill: #373737;
      }

      .cls-75 {
        fill: #535353;
      }

      .cls-76 {
        opacity: 0.99;
        mix-blend-mode: screen;
      }

      .cls-77 {
        fill: #5d5d5d;
      }

      .cls-78 {
        fill: #111;
      }

      .cls-79 {
        fill: #7c7c7c;
      }

      .cls-80 {
        fill: #181818;
      }

      .cls-81 {
        fill: gray;
      }

      .cls-82 {
        fill: #959595;
      }

      .cls-83 {
        fill: #303030;
      }

      .cls-84 {
        fill: #5a5a5a;
      }

      .cls-85 {
        fill: #878787;
      }

      .cls-86 {
        fill: #969696;
      }

      .cls-87 {
        fill: #8c8c8c;
      }

      .cls-88 {
        fill: #747474;
      }

      .cls-89 {
        fill: #909090;
      }

      .cls-90 {
        fill: #818181;
      }

      .cls-91 {
        fill: #7b7b7b;
      }

      .cls-92 {
        fill: #060606;
      }

      .cls-93 {
        fill: #565656;
      }

      .cls-94 {
        fill: #151515;
      }

      .cls-95 {
        fill: #717171;
      }

      .cls-96 {
        fill: #707070;
      }

      .cls-97 {
        fill: #121212;
      }

      .cls-98 {
        fill: #646464;
      }

      .cls-99 {
        fill: #525252;
      }

      .cls-100 {
        fill: #5c5c5c;
      }

      .cls-101 {
        fill: #727272;
      }

      .cls-102 {
        fill: #555;
      }

      .cls-103 {
        fill: #010101;
      }

      .cls-104 {
        fill: #585858;
      }
    </style>
  </defs>
  <title>Artboard 3</title>
  <g class="cls-1">
    <g id="Layer_4" data-name="Layer 4">
      <path class="cls-2" d="M1058,541.55C1058.58,826,827.1,1057.62,541.82,1058,257.4,1058.38,25.53,827.42,25,543.2,24.47,257.72,255.08,25.42,539.42,25,826.3,24.57,1057.42,254.79,1058,541.55Zm-10.2-.17c-.23-279.51-226.69-506-506.17-506.17S35,262.29,35.2,541.62c.24,279.53,226.7,506,506.17,506.17S1048,820.73,1047.8,541.38Z"/>
      <path d="M453,160c9-9.13,20.62-14.53,31.43-21a135.78,135.78,0,0,1,38.72-15.59c12.12-2.89,23.44-8.53,35.65-11.38,5.68-1.33,11.3-2.88,17.11-3.46,20.53-2,40.93-5.92,61.65-5.13,9.61.36,19.21,1.85,28.75,3.25,13.79,2,27.56,4.16,41.27,6.91,8.07,1.62,16.58,1.38,24.4,4.52,10.14,4.08,20.19,8.38,29.63,14,3.34,2,7.1,2.94,10.79,3.87C798,142.34,818.25,156.78,835,177c11.89,14.36,24.92,27.77,35.36,43.31a13.92,13.92,0,0,1,2,2.86c5.37,15.46,16.63,27.6,23.69,42.08,2.63,5.39,3.82,11.35,5,17.2,2.43,12.12,1.93,24.5,3,36.75.84,9.93,3.17,19.75,3,29.75-.22,11.83,1.34,23.64,1.26,35.28-.08,11.44.87,23.16-1.64,34.73-2.42,11.14-1.08,22.69-1.24,34.06,0,2.33.23,4.66-.45,6.94-.32-.33-.63-.67-.94-1-.37-3.87-2.48-7.19-3.49-10.86-.39-1.43-1.17-2.93-2.81-3.24-1.88-.35-2.46,1.42-3.25,2.6a301.94,301.94,0,0,0-18.27,31.39c-1.66,3.28-1.69,5.76.2,9.12,3.56,6.32,8.84,11.68,10.76,18.91l2,2.31,0,7.56c-.17.8-.33,1.59-.69,3.31-4.14-8.61-8-16.48-14.46-22.64,3.49,5.46,6.86,11,10,16.63,2.16,3.91,2.89,8.56,6.15,11.91l0-.06c-.16,2.41,1,4.5,1.68,6.69,6.2,19,14.93,37.4,14.18,58.11a11.82,11.82,0,0,0,.9,3.32c1.4,17.76.34,35.49-1.34,53.16-.72,7.51,1.23,15-.23,22.36-2.66,13.37,1.55,26.42,1.07,39.63a144.17,144.17,0,0,0,1.54,26.1,3.28,3.28,0,0,1-.77,2.79l-2.14.79c-1.87.15-3.82,2.15-5.58.18-3.23-3.63-7.63-5.83-10.86-9.52a29.3,29.3,0,0,0-12.29-8.26c-6.35-2.29-13.23-3.5-18.43-8.41a4.93,4.93,0,0,0-2.31-.84c-13.88-2.88-26.76-9-40.4-12.62a27.79,27.79,0,0,1-8.87-4.48,96.72,96.72,0,0,1-28.44-31.59c-2.9-5.14-5.37-10.78-9.83-14.94-8.4-7.83-16.89-15.56-25.35-23.32-2.13-2-3.41-4.4-2.14-7.13,1.47-3.16,4.53-2.53,7-1.62,3.55,1.3,6.48.39,9.43-1.48A20.57,20.57,0,0,0,766,603.3a63.91,63.91,0,0,0,2.9-19.67c-.24-19.25.33-38.51-2.73-57.69-2.32-14.56.36-29.18,1.74-43.73-.65-5.08,1.86-10.36-1-15.31,11.81-17.39,5.62-49.78-8.32-64.66-4.77-5.09-10.57-8.5-16-12.59-12-9-25.48-9.73-39.51-7.83-4,.55-8.43,2-10.26,5.45-3.08,5.74-7.53,7.41-13.41,7.7-2.61.12-5.15,1.23-7.75,1.79-1.11.24-2,.51-1.45,1.87,2.37,5.7-1.41,6.2-5.42,6.31-3.3.09-4.87,1.05-3.77,4.77,1.25,4.2-1.16,6.22-5.58,6.54,3.32,2.95,6.9,4,10,5.8,2.06,1.17,5.8,1.59,5.13,4.54-.63,2.78-4.28,2.32-6.8,2.93-9.64,2.32-19.85,2.28-29,6.86-5.39,2.71-9.2,7.58-14.57,10.38-9.71,5.06-17.94,11.69-24,21.21-4.79,7.56-11.49,12.61-21.36,8.33a7.44,7.44,0,0,0-2-.3c-5.12-.59-9-2.91-11.5-7.63a75.21,75.21,0,0,1-8.62-27.44c-.7-6.6-.37-13.6-3.34-19.54s-2.72-11.86-2.77-18c0-3.17.07-6.34-.12-9.49-.15-2.44-1.25-4.49-2.42-6.74-3.79-7.35-9.8-13.37-12.34-21.49-1.73-5.53-4.29-10.81-6.61-16.15-4-9.28-9-18.22-11.45-28.06-1.25-4.95-1.88-10-4.13-14.7-1-2-1.93-2.64-4.23-2-6.74,1.82-13.61,3.19-20.35,5a259.74,259.74,0,0,1-58.55,9.08c-6.31.22-12.61-1.17-19-.54-10.77,1.08-21.53,2.45-32.39,1.53-2.4-.2-3.83.39-5,2.78a231.65,231.65,0,0,0-14.78,35.95c-1.64,5.45-5,10.58-4.39,16.64,11.58-1,22.1-5.33,33-8.06,8.08-2,15.49-1.5,21,5.81l-2.1,0c-2.4-1.37-5.24-1.44-7.62-3.27-2.65-2.05-11.13.06-13.29,2.66a7.88,7.88,0,0,0-2.38.51c-4.28,2.48-9.86-1.16-13.77,3-3.92-.08-5.05,3.61-7.37,5.9-1.19-3.53-1.19-3.53-5.47-1.72L349,383.81c-13.07-2.57-25.17-7.87-37.57-12.52-36.66-13.73-60.16-42.3-82.72-72-2.7-3.55-6.34-5.18-9.42-7.85-5.44-4.72-11.73-7.63-18.45-10.41-12.24-5.08-23.17-12.86-29.66-24.89-4-7.46-3.86-16-2.55-24.34.46-2.92,2.25-4.09,5.42-4.71,13.92-2.73,27.89-1,41.83-1.05,17-.12,34-.66,51-.32,12.28.26,24.54,1.92,36.85,1.22,16.78-1,33.59.93,50.35-.69a1.72,1.72,0,0,1,.5,0c11.45,2.78,19.82-2.63,27.33-10.3l1.11,1a35.37,35.37,0,0,1-2.78,2.83c-6.31,5.12-6.37,5.22,1.05,8.92,11.33,5.65,22.55,11.5,33.07,18.58a200.75,200.75,0,0,0,56.4,26c3.86,1.12,5.68.69,7.26-3A150.11,150.11,0,0,1,516.75,217c14.45-12.86,26.16-27.82,37.09-43.61,18.81-27.16,42.54-48.85,72.25-63.72,1.13-.56,2.55-.92,2.89-2.85-3.33-1.37-6.78-.6-10.18-.49-8.19.26-16.1,2.7-24.16,3.39-21.84,1.85-43.34,4.69-63.42,14.24a40.17,40.17,0,0,1-9.54,2.89c-14.08,2.77-26.59,9.33-39.24,15.67-10.19,5.12-18.5,13-28.47,18.44Zm418.11,532a78.67,78.67,0,0,0-11-14c-2.93-6-7.12-11.22-11.26-16.43,3.38,5.74,6.17,11.88,11.07,16.6a45.23,45.23,0,0,0,11,14c2.68,5.21,7.38,8.4,11.86,11.81ZM607,402c3-.79.88-2.61.5-3.67-1.47-4-3.16-8-4.91-11.94-1.88-4.24-3-8.86-6.4-12.42L607,402l-4.16-5.09c1.41,5.54,3.73,8.76,7.43,10.5C609.43,405.41,607.29,404.24,607,402Zm-38-52c2.63,4.19,5.19,8.44,7.93,12.56.88,1.32,1.38,4.27,3.71,2.81,2.13-1.34-.38-2.84-1.08-4-2.71-4.54-5.64-8.93-8.49-13.38-7.55-11.23-13-23.59-18.79-35.78.08,5.58,3.28,10,5,14.88-1.53-.33-1.58.48-1.51,1.7.31,5.74,2.11,11.09,4.11,16.4.81,2.16,2.06,4.19,1.82,6.67C560,369.11,570.57,382,577.23,396.3c-4.71-13.38-13.43-25.38-13.44-40.45l12.73,25.07,1.16-.64c-3.7-7.42-7.48-14.8-11.07-22.27-1-2.15-2.77-4.29-1.6-7ZM779,635c-3-7.06-6.67-13.9-8-21.63-1.45,5.59,2.33,10.13,3.41,16.49-4-4.54-4.95-9-6.39-13.3-.52,6.12,2.42,10.91,5.89,15.5a109.67,109.67,0,0,0,16.63,20.36Zm27,20c3,6.57,7.82,12,10.91,18.55-1.55-6.74-5.52-12.3-7.93-18.57-2.94-8.25-6.71-16.24-7.93-25,2.25,4.63,4.47,9.27,6.77,13.88,1.63,3.27,3.28,6.54,5.1,9.72s3.83,6.16,5.76,9.23c-8.52-16.39-17.2-32.51-21.55-50.65v4.93c-.33-.37-.67-1.07-1-1.06-1.79.08-.71,1.35-.55,1.94,2.67,9.72,5.28,19.46,8.77,28.94.82,2.23,2.69,4.3,1.72,7a324.16,324.16,0,0,1-24.47-58A156.81,156.81,0,0,0,792.32,629c3.94,9,7.64,18.11,13.61,26ZM613.8,388c5.86,11.58,14.44,20.71,20.91,21.56-3-2.64-5.85-4.63-7.8-7.48l-19.53-30.94A26,26,0,0,0,613.8,388ZM832,490.74c4.9,6.3,9,13.11,13.27,19.84,5.85,9.26,11.78,18.46,17.67,27.68,2,5.41,5.67,10.06,7.2,15.68q3.39,13.11,6.77,26.21c.1-6.73-2-13-3.18-19.45,1.91,4.19,5.3,7.88,5.19,12.68-.42,18.93,3.8,37.33,6.22,55.92,1.51,11.6,3.94,23.09,6.12,35.61,1.09-2.89.41-4.65.14-6.43-3.81-24.63-8.65-49.13-10.37-74-.76-11-2.5-21.33-8.82-30.53-3.11-5.66-4.37-12.29-9.1-17.08-1-1.73-2-3.46-3-5.18-11.44-19.82-24.61-38.53-37-57.72-1.34-5.94-4.86-10.9-7.13-16.42-.46,4.59,3.89,7.84,3,12.47-2.43-2.75-2.43-2.75-5.16-3.53,5.58,6.05,10.69,12.22,14.07,19.62,7.5,17.54,16.4,34.38,25.43,51.16A105,105,0,0,0,848,525Q840,507.88,832,490.74ZM557.89,355.09A167,167,0,0,1,555,338.21V350q-1.23-7.45-2.45-14.92a35.94,35.94,0,0,0-.41,8.33,167.17,167.17,0,0,0,5.9,31.6c-3.15-2.4-4.35-6.24-6.75-9.22-13.06-16.19-20.4-35.23-26.94-54.66-1.16,8.91,6.9,33.44,13.47,40.32-.8-2.22-1.45-4-2.1-5.86,4.19,5.62,7.44,11.66,11.51,17.09,4.48,6,6.54,12.6,7.67,19.74,2.08,13,4.9,25.92,9.89,38.13a117,117,0,0,1,6.35,22,64.83,64.83,0,0,0,4.74,15.23c1.27,2.7,2.75,5.19,5.81,6.38-5.6-7-7.38-15.43-9.32-23.78-1-4.19-2.11-8.46-2.17-12.71-.06-4.1-3.75-5.66-4.81-9a301.45,301.45,0,0,1-9.21-37.31c-.31-1.65-1.19-3.37-.35-5.47l3.09,2.19c5,12.24,9.35,24.79,16.2,36.26-.81-2.85.24-6.66-.6-8.3C566.21,389.92,562.82,372.27,557.89,355.09ZM817.08,191.76a111.75,111.75,0,0,0-4.28-29c-.93-3.12-2.3-5.82-5.06-7.77a117.66,117.66,0,0,0-29.81-14.79c-7.25-2.51-14.3-5.36-21.42-8.15-9.75-3.82-18.75-9.32-28.94-12.13-7-1.93-14.3-1.62-21.14-3.29-20-4.9-40.29-7-60.63-9.16-5.14-.55-9.9-.07-14.51,2.39-13.24,7-26.6,13.87-37.54,24.42-6.94,6.7-14.89,12.26-20.94,20-8.75,11.13-16.76,22.79-25.21,34.12a232.16,232.16,0,0,1-26,29c-8.06,7.68-16.24,15.24-23.14,24.13-7.75,10-12.31,21.71-19,32.27-1.11,1.76-.58,2.62,1.19,3.39,11.89,5.16,23.57,10.88,36.48,13.31,6,1.13,11.91,2.47,16.35,7.61,1.92,2.23,5.41,3.14,8.25,4.52,3.13,1.53,6.55,2.59,9.48,4.43,9.32,5.86,19.53,10.05,29.37,14.75,13.34,6.39,26.62,13,40.35,18.6,15,6.12,28.66,14.87,43,22.33,9.93,5.18,20.56,8.71,30.52,13.71a18,18,0,0,0,10.86,2.08c7.58-.88,15.23-1.05,22.86.68,6.56,1.48,11.77,5.26,17.3,8.66,6,3.71,6,3.54,8.35-2.95,1.63-4.54,3.45-9,5.45-13.41,4.93-10.78,8.39-22.1,12.42-33.2,4.26-11.72,6.86-24.06,12.06-35.43,11.19-24.43,21.11-49.27,26.62-75.68C812.92,215.05,816.7,203.23,817.08,191.76ZM815,161.21c2.75,11.3,4.66,22.58,4,34.15-1,17.77-6.22,34.76-10.85,51.72a371.18,371.18,0,0,1-18.95,52c-4.82,10.9-8.32,22.47-12.54,33.64C770,350.25,764.11,368.2,755.59,385c-2.35,4.64-3.13,8.61,2.26,11.77,1.34.79,2.19,2.48,3.15,3.84,9.92,13.93,23.47,23.35,38.44,31.05,2.37,1.21,5.18,1,7.4,2.79,9.54,7.86,20.92,12.87,31.17,19.71,8.91,6,18.49,10.72,25.17,19.51,1.29,1.69,3.14,3,4.69,4.46,3.2,3.07,5.38,2.93,7.31-1.52,5.18-12,13.14-22.39,19.2-33.85,5.27-10,6.72-21.34,10.54-31.87a1.68,1.68,0,0,0,0-.5c.38-15.43,0-30.83-.73-46.27-.44-9.22,1-18.73-.65-27.8-2.49-13.67-2.78-27.51-4.1-41.22-1.57-16.26-6.21-30.89-15.47-44.2-3.23-4.65-6.93-9.16-8.63-14.58-2.77-8.87-8.52-15.8-14.14-22.75-9-11.12-18.85-21.54-27.57-32.86C828.09,173.57,821.63,167.46,815,161.21ZM524.3,294.68c-3.46-2-6.87-2-10-2.55-14.41-2.67-27.31-9.57-40.88-14.56-11.08-4.07-22.63-6.76-33.34-12-21.45-10.45-40-25.88-61.77-35.79-2.32-1.05-4.33-1.93-7-1.87-23.61.46-47.23.53-70.83,1.18-11.68.32-23.27-.89-34.92-1.06-20.62-.3-41.22,1.73-61.86.11a128.54,128.54,0,0,0-25.93.8c-3.13.39-7.13.38-7.28,4.52-.28,8.08-1.06,16.47,3.93,23.64A58.78,58.78,0,0,0,208,280.7a18.8,18.8,0,0,1,7,3.68c5.06,4.09,10.17,8.15,16.38,10.41,15.8,5.75,31.43,12.1,48.2,14.64,7.57,1.15,15.16,2.16,22.74,3.31,16.49,2.5,33,4.81,49.7,2.27,3.27-.49,6.61.18,9.93.54,10.25,1.12,20.5,2,30.88.95,9.26-.91,18.56-2.24,27.91-1.26,18,1.89,35.48-2.49,52.86-5.89,11.55-2.26,22.91-5.81,34.43-8.49C513.48,299.59,518.89,298.08,524.3,294.68ZM231,298.33c1.27,2,1.77,3,2.45,3.88,12.77,16.26,26.1,32,42.5,44.81,5.77,4.51,10.63,10.58,17.36,13.37,17.15,7.11,33.5,16.41,52.08,19.84,2.95.54,3.74-.4,3.36-3a21.46,21.46,0,0,1,1-8.87,259.57,259.57,0,0,1,16.69-44.87c1.48-3,1-3.84-2.29-4.58-6.7-1.53-13.25-.28-19.87.1-14.38.83-28.58-.89-42.77-3.06-16.46-2.53-33-4.38-48.75-10.41C246,303,239,301,231,298.33ZM786.46,427.67q7.71,18.06,15.4,36.13c3.11,7.34,7.39,14.42,7.95,22.49,1.55,22.2,5.85,43.87,11.39,65.33,1,4,2.47,7.8,3.72,11.69a415.62,415.62,0,0,1-13-72.42c6.06,17.8,13,35.21,20.41,52.46a16.16,16.16,0,0,0-1.18-5.09c-4.22-11.22-8.36-22.48-12.74-33.64-4.17-10.62-6.59-21.79-10.56-32.49-3.87-10.44-6.41-21.37-9.55-32.08-.28-.95-.26-2.17-2.11-2.82L801.88,458C796,448.15,793.09,437,786.46,427.67ZM871.78,662.3c-3.48-18.82-10.88-36.57-14.89-56.54l2.51,3.39c-5.6-20.84-10.32-41.68-15.2-62.9-1.52,1.58-.69,2.69-.45,3.71,2.57,11.18,4.89,22.43,7.93,33.49,3.38,12.34,2.9,25.33,7.18,37.56C863.63,634.61,867.51,648.52,871.78,662.3ZM801.2,594.19c-4.32-17.71-7.66-35.59-8.46-53.91a74.72,74.72,0,0,0-.53,15.94c-7.05-17.07-13.72-34.12-17.68-53.2a14.89,14.89,0,0,0,.24,8c2.25,9.77,5.76,19.13,9.06,28.57,4.43,12.7,10.35,24.9,12.29,38.45A47.53,47.53,0,0,0,801.2,594.19Zm-1.34-65.36c.73,26.72,5.73,52.61,16.35,77.29A312.47,312.47,0,0,1,799.86,528.83Zm100.93,181c-9.85-24.21-17.52-49.1-25.28-74C881.55,661.4,889.52,686.23,900.79,709.87ZM820.4,575.23c-6.28-23.06-11.06-46.47-16.11-69.82C807,529.31,813,552.43,820.4,575.23Zm57.81-36.06c-1.21-12.9-22-62.43-28-66.77A452.36,452.36,0,0,1,878.21,539.17ZM556.79,403.49c-.42.81-.71,1.1-.67,1.35,2.59,17.48,6.34,34.67,13.53,50.92,2.09,4.74,2.7,5.09,5.51,6.59C564.15,444.49,561.44,423.92,556.79,403.49Zm70.47-9.5c-2.58-16-8-31.58-6.74-48.17C617.39,362.62,621.68,378.39,627.26,394Zm176,123.2c-5-17.26-12.67-33.58-18.61-50.53C789,484.17,796.6,500.5,803.25,517.19Zm17.62,109.47c5.78,17.78,16.35,32.59,29.06,46C838.54,658.45,828.07,643.64,820.87,626.66ZM837,647.49c-7.75-16.56-15.74-33-20.11-50.85C819.72,615.16,828.05,631.48,837,647.49ZM787,488.56c0,16.88,4,33,10.29,48.61C792.74,521.22,788.6,505.18,787,488.56ZM529.11,301.41c2.66,15.26,7.8,29.77,14.08,43.9C538.45,330.71,533.31,316.24,529.11,301.41ZM867.43,525.32l-.9.41,16.17,43.63c-3.72-13.83-8.55-27.24-13.43-40.63A26.15,26.15,0,0,0,867.43,525.32Zm8.72-18.85c5.12,11.2,9.51,22.74,15.05,33.76A164.88,164.88,0,0,0,876.15,506.47ZM645,377.34a76.15,76.15,0,0,0,18.16,20.1C656.87,390.88,651.15,383.86,645,377.34Zm-32.07,53.48c-4.91-7.84-8.32-16.43-13.3-24.15C603.27,415.16,606.55,423.87,612.88,430.82Zm-15.4-44.26L585.42,364.3A65.94,65.94,0,0,0,597.48,386.56Zm-1-37.81,1.17-.6L584.46,328l-1.25.81Zm252,154.92q5.17,10.95,10.34,21.89A63.64,63.64,0,0,0,848.47,503.67ZM581,426.67c.54,6.79,3.68,12.27,8.22,17.05Zm4.83-1.95c2.17,7.55,6.25,14,9.77,15.82C591.72,435.33,589,429.85,585.78,424.72Zm-39-116.26-1.32.27,7,14c.38-.2.76-.4,1.15-.59Zm103.31,52.93a34.57,34.57,0,0,0,10.77,10.52Z"/>
      <path class="cls-3" d="M350.84,664a132.32,132.32,0,0,1,9.44-34.85c2.2-5.37,8.12-7.1,11.82-11.06l1.08,1.18c-.23,5.6,4.22,7,11.65,5.46a32.65,32.65,0,0,0,20.85-13.83L408,611c1.34,13,5.2,25.67,4.22,39a70.83,70.83,0,0,0,1.09,16.87c2.29,13.52.08,26.8-1.44,40.13-.95-.81-1.71-.81-2.19.48-1,2.58-2.1,5.15-.5,7.89-3.27,7.41-2.75,14.36,1.77,21.27,2.9,4.43,4.74,9.53,7.45,14.1,2.26,3.8,3.29,7.88,2.43,12-2,9.36-.9,20-10.07,26.67-.36.27-1.08.93,0,1.71,6-2.23,12.29-4.17,18.94-4.08a124.3,124.3,0,0,1-13.19,4.39c-1.3.38-2.79,1-2.75,2.5,0,1.89,2,1.34,3,1.45,4,.44,8.08.07,11.91,1,18.19,4.33,36.78,5.66,55.27,7.78,6.47.74,12.26,1.81,15.81,8.33,1.43,2.62,4.36,4.54,6.85,6.45a49.74,49.74,0,0,1,10.48,11.23c6,8.47,9,18.1,11.91,27.81a187,187,0,0,0,10.08,26c5.68,12,11.7,23.84,13.88,37.13l-.85,1a778.09,778.09,0,0,1-29.5-74.64C519,836.2,511.26,828,503.43,819.8c-2.64-2.76-5.67-5.13-7.81-8.38-2.43-3.7-6.27-4.71-10.36-5-20.43-1.63-40.66-4.7-60.87-8-8-1.3-16.22-1.51-24.34-2.18-2.85-.23-5.63-.64-8-2.37a3.42,3.42,0,0,0,0-2.8c1.33.58,2.63,1.5,4,1.66,2.19.26,5.34.76,6.33-1,1.2-2.07-2.24-2.41-3.33-3.8-5.59-5-6.86-7.21-7.56-13.41.69,1,1.14,1.69,1.58,2.36,2.05,2.54,4.29,5,6.09,7.68,1.53,2.32,3.94,2.76,6.13,3.75a2.22,2.22,0,0,0,2.74-.29c.83-1.07-.3-1.76-1-2.41a23.83,23.83,0,0,0-1.94-1.5Q404,781.6,403,779l1.95,1a5.76,5.76,0,0,0,7.22,2.45c1.28-.48.43-3.84-.24-5.89a7.79,7.79,0,0,1-.05-2.37c.95,1.26,1.21,3.07,2.93,3.84-.4-4.37-3.9-12-6.78-14.85l1-4.21c3.26,4.09,5,9,6.74,14,3-4.9.8-8.59-1.54-12.3-1.41-2.25-2.62-4.63-4-6.92-1.08-1.84-1.55-3.67-.38-5.64,1.06,2.28,2.11,4.57,3.17,6.86,1.57,3,2.43,6.34,5.95,9.64.07-8.56-2.15-14.82-7.81-19.77-2.57-3.54-3-7.83-4.15-11.86-.59-4-3.73-6.92-4.21-11.08-.71-6.26-1.84-12.46-1.85-18.8,0-1.6.92-3.91-2-4.3L398,698q-1-2.52-2-5c.38-1,.75-2,1.12-3.06,2-4.5.39-9.21.81-13.8.6-6.67-.85-13.44.91-20.06V680.5c1.32-2.11.82-4.33,2-6.28q.62,14.91,1.24,29.83c0,.56-.3,1.39.7,1.53.1,0,.23-.2.35-.31,1.6,2.72.21,6,1.57,9.54,2.46-5.86.57-11.5,2.21-16.67l.27,2.22.64,0q.61-3.2,1.21-6.39c1.24-2,1-4.17.9-6.34,1.33-8.14,1.19-16.34,1-24.55,1.06-6.63-1.48-13.22-.19-19.88.33-1.69-.94-2.73-2.43-3.38-.33-3,.19-6.15-1.11-9.05.73-5.59-2.18-10.89-.84-16.78-5.06,2.54-3,7.38-4.09,10.77-1.83.07-1.41-2.12-2.91-2-.84,3.74-1.67,7.44-2.49,11.14-1.08-2.32-.71-4.76-.65-7.18,0-1,.94-2.52-.73-2.82-1.22-.21-1.8,1.17-2.38,2.14s-.85,1.85-1.28,2.77l-.52.07c-.08-.64.06-1.52-.3-1.86-.73-.68-1.05.25-1.39.72-.8,1.12-1.73,3.75-2.72,2.77-4.55-4.53-4.07,1.47-5.89,2.5l-.72.76-1.17-.82c.24-1.43.47-2.86.79-4.73-2.86,1.89-3.67,4.48-5,6.69-.26-.62-.53-1.25-.8-1.87.53-1.8,3.12-3.33,1.64-5.27s-3.79-4.52-6-4.89c-1.89-.3-.16,3.56-1.79,5-2.16,2.37-3.43,5.28-4.86,8.1-1.28-1-2.91-2.7-3.48.3-1,5.29-3.44,10.26-3.4,15.76Q355,657,353.8,662Z"/>
      <path class="cls-3" d="M350,536c-9.44,0-18.88,1.49-28.29-1.17-15.83-4.49-22.55-19.33-17.17-35,7.41-21.52,19.93-39.73,33.76-57.3,4.2-5.34,6.14-12.29,11.86-16.53l1,1.1c-5.27,6.83-9.29,14.5-14.58,21.34-11.8,15.29-23.2,30.85-28.53,49.89-1.81,6.46-4,12.9-1.92,19.56,4,12.59,15.79,15.82,26,16.32,2.08.1,2.37-1.4,2.79-2.85a7,7,0,0,1,6.06-5.26c8.21-1.16,16.43-2.38,24.69-3,3.5-.28,4.11-1.21,3.4-4.45a63.18,63.18,0,0,1,1-31.58c1.73-6,.88-7.2-5.39-7.8a17.75,17.75,0,0,0-5.42.49c-6.68,1.48-13.18,3.52-19,7.33L339,486a19.54,19.54,0,0,1,3.62-2.56c9.24-3.85,18.29-9.31,28.8-4,1.39.7,1.67-.47,2.26-1.18.73-.89.86-2.64,3.09-1.87-9.78,17.77-7.76,36.07-2.71,54.49-2.8.33-1.48,1.7-.84,3,1.09,2.28,4,3.88,2.8,7.05-2.86-3.68-10.66-6.92-13.1-4.78-2.83,2.5-6.83,3.13-9.09,6.29-.7-.9-.32-1.69.22-2.47C354.51,536.81,351.45,537.21,350,536Z"/>
      <path class="cls-4" d="M905,738.84l2.14-.79c1.1,12.37,4.28,24.58,2.31,37.17-.77,5,.37,10,1.2,14.87.46,2.72-.06,3.85-2.59,4.8-19.17,7.25-37.6,15.78-54.22,28.15-12.93,9.63-26.69,18.17-41.9,24-6.42,2.46-11.91,6.61-17.82,10C775.4,867.65,755,874.6,736,884.65c-21.87,11.59-45.06,20.72-65.19,35.57-5,3.7-11.11,5.94-16.71,8.84l-1-.91c5-4.33,11.86-5.42,17-9.39,19.4-15.08,42.31-23.75,63.67-35.22,18.76-10.08,39.08-16.92,57.73-27.34,7.09-4,13.8-8.65,21.45-11.65,15-5.88,28.52-14.48,41.28-24.09,15.62-11.77,33.33-19.27,51.08-26.78,3-1.3,4.32-2.34,3.44-5.58-1.64-6-1.2-12.15-.81-18.33C908.52,759.35,907.11,749,905,738.84Z"/>
      <path class="cls-5" d="M349,383.81l4.09-3.78c-1.56,9.18,4.21,15.49,11.86,13a2,2,0,0,1,3.13,0c1.48-.07,3,.17,3.18-2.12.18-2.83,2.14-4.77,3.87-6.78,1.64-1.07,3.67-1.82,4.82-3.27,1.5-1.89.69-5.09,3.22-6.62,2.39,0,3.42,1.13,2.59,3.44a5.31,5.31,0,0,0,.13,4.28l-.75.21c-7.89-.87-6.53,5.18-7.25,9.73,1.95.6,3.14-.39,4.06-1.93,2-.25,4.19.15,5.59-2.23A6.67,6.67,0,0,1,392,385c-.84,1.72-2.55,3-3,6.27,3.32-3.93,7.95-2.4,11-5.18l7.2-3.9c1.41,1.58-1.8,2,0,3.87l9.72-6.08c1.53.66,5.12-1.45,3.9,2.91-2.81,1-5.63,1.92-8.41,3-.93.35-2.69.32-1.8,2.14.64,1.3,1.71,1.27,2.94.61,3.24-1.76,6.94-1.72,10.43-2.5,2.15,3.06-3,1.36-2.16,3.75,2.73.14,5.41-.75,8.09-1.44.9-.23,2.56-1.15,2-1.67-2.24-2-1-6.09-4.63-7-7.45-1.86-14.9-3.32-22.31.21-.3.05-.6.07-.9.09-2-1.2-4.09-.53-6.14-.11,1.69-2.35,3.7-3.91,6.86-4.06,3.47-.16,1.19-1.15.08-1.83l-1.74-.15c0-.3-.08-.6-.1-.9l2.1,0a6.47,6.47,0,0,1,5.24,1,10.63,10.63,0,0,0,8.11,1.8c7.48-1.44,12,2.59,15.9,7.91,2.56,3.45,1.93,5.42-2.23,6.34-3.73.82-7.53,1.29-11.29,2-10,1.86-19.88-1.84-30.12.77-9.48,2.43-19.62,2.25-29.48,3.19a7.36,7.36,0,0,0-4,1.75l-1.06,1.2C352.91,394.31,351.86,388.63,349,383.81Z"/>
      <path class="cls-6" d="M350,536c1.49,1.2,4.55.8,4.1,4A13.78,13.78,0,0,0,346,557c-1.57,3-.72,5.9.63,9.31.3-2.26.53-3.93.75-5.61l1.29-.26c-.17,8.11,1.31,15.59,7,22.25-.29-4.71-4.28-8.1-1.75-12.49,1.7,2.92,1.25,7.06,5,8.79,1.5-1.29-.11-3.21.94-4.74,2.65,1.65,1.74,6,5.26,6.78h1c-.56,2,1,2.19,2.26,2.29,3.12.26,6.26.38,9.39.56l1.25,1c-2.25.21-3.15,1.45-2.84,3.66.42,3.08.82,6.17,1.23,9.26l-1.55.25c-1.53-2.95-1-6.16-1-9.26,0-2.11-.73-2.85-2.79-3.16-3.73-.57-7.72.05-11.15-2.21a1.94,1.94,0,0,0-1.81.16c-4.82,4.34-5.61.73-7.14-3.12-1.46-3.65-4.07-6.82-6-10.3q-8.6-15.57,2.1-29.87C349,539.07,350.73,538.06,350,536Z"/>
      <path class="cls-7" d="M375.84,598.06l1.55-.25c8.08-1.07,16.19-2,24.34-1.23,1.88.16,2.46-.27,2.22-2-.43-3.12-.91-6.23-1.28-9.35-.33-2.82-1.7-3.41-4.45-3-6.37,1.08-12.81,1.78-19.22,2.63l-1.25-1c4.81-1.67,10.17-.29,14.94-2.75-1.07-2.71-4.15-2.44-5.91-4l1.22-1a5.8,5.8,0,0,0-.79-6.32,18.06,18.06,0,0,0-4.69-9.08,20,20,0,0,1-3.77-6.31c-.23-.54-.64-1.44.51-1.36.56,0,1.09.67,1.64,1,4.37,5.67,7.21,12.25,10.78,18.39,1.43,2.46,2.94,4.35,5.87,4.74A2.19,2.19,0,0,0,400,576h1c3.53,6.2,3.55,13.28,5.12,20,1.16,5,0,10.17,1.88,15l-2.35-.12c.89-1.8-.47-3.3-.64-5,.5-1.2.83-2.36-.83-2.95.67-3.66-1.54-4.76-4.52-4.7-6.09.13-12.18.56-18.28.7C379.55,599,377.45,599.87,375.84,598.06Z"/>
      <path class="cls-8" d="M350.84,664l3-2-4.08,12.89A54.92,54.92,0,0,0,339,690a27,27,0,0,0-5.13,9.91c-.69,1.11-1.75,1.18-2.89,1.07-1.25,1.08-2.6,2.2-3,3.83-2.15,8.6-4.87,17.12-4,26.19l-1.76,1c-1.64-14.7,3.25-28,9.06-41,1.8-4,5.09-6.86,8.22-9.82A45.76,45.76,0,0,0,350.84,664Z"/>
      <path class="cls-9" d="M392,791.07a3.42,3.42,0,0,1,0,2.8c-9.15-3.22-16-10-23.25-15.84a214.14,214.14,0,0,0-22.15-15c-1.82-1.12-2.57-2.6-3.63-4.1l-.06-1c-1.09-2.82-2.17-5.63-3.39-8.81,2.64.92,3.17,3.28,4.74,4.58,2.4,2,3.58,5.72,7.6,5.47l2.16,2.19c5.6,4.22,9.65,10.25,15.92,13.7,3.86,4.37,8,8.4,13.32,11,1.42,1,2.48,2.78,4.65,2Z"/>
      <path class="cls-10" d="M383,217l-1.11-1c7.88-9.37,18.26-15.93,27.17-24.15C422.42,179.46,437.39,169.25,453,160l1,1c-4.6,3.84-9.89,6.67-14.83,10C419,184.6,401.87,201.84,383,217Z"/>
      <path class="cls-8" d="M552.15,922l.85-1c4.46,10,8.71,20.07,10.4,30.94.8,5.18,1.8,10.23,5.63,13.88,4.6,4.37,6.84,11.79,14.81,12,.34.63.68,1.25,1,1.88-3.23,1.46-5.79,1.1-8.19-2-2.53-3.22-5.88-5.71-8.62-8.85-5.2-6-6.57-13.07-8-20.38-1.29-6.48-2.78-12.92-5.65-19C553.25,927.21,552.87,924.51,552.15,922Z"/>
      <path class="cls-11" d="M653,928.15l1,.91c-16.42,8.5-29,22.65-45.31,31.3-3.6,1.9-6.55,5-9.8,7.62l-.94-.83c8.29-8.6,19.74-12.83,28.57-20.63A121.13,121.13,0,0,1,653,928.15Z"/>
      <path class="cls-12" d="M342.94,757.9l.06,1a5.43,5.43,0,0,1-5.81-1.83c-6.46-7.47-14.49-14-15-25.06l1.76-1A56,56,0,0,0,330,746c.57-1.65-1-2.61.07-3.81,3.39,2,2.67,7.25,6.84,8.52C338.42,753.53,339.08,757.05,342.94,757.9Z"/>
      <path class="cls-13" d="M906.86,594a11.82,11.82,0,0,1-.9-3.32c.75-20.71-8-39.1-14.18-58.11-.71-2.19-1.84-4.28-1.68-6.69,2.86,3.23,4,7.35,5.88,11.12,1.77,11.75,6.49,22.62,10.14,33.81C907.76,578.5,906.14,586.29,906.86,594Z"/>
      <path class="cls-14" d="M904,459c.31.34.62.68.94,1a42.57,42.57,0,0,0-1.81,13.18c.08,1.46.15,3.27-.6,4.35-6.32,9.14-6.68,20.67-12.26,30.08-.34.55-.74,1.07-1.11,1.61l-2-2.31c2.94-1,3.39-3.93,4.39-6.27,3.23-7.55,3.81-16.15,9.22-22.87,1.14-1.42.64-3.48.55-5.32A25.65,25.65,0,0,1,904,459Z"/>
      <path class="cls-15" d="M906.12,570.82c-3.65-11.19-8.37-22.06-10.14-33.81C901.9,547.52,905.6,558.69,906.12,570.82Z"/>
      <path class="cls-16" d="M404.21,603c1.66.59,1.33,1.75.83,2.95-3.49-2.32-7.22-2.59-11.35-2-9.81,1.31-15.83,7.38-20.51,15.37l-1.08-1.18c3.42-10.15,20-19.69,30-15.06C402.71,603.3,403.52,604,404.21,603Z"/>
      <path class="cls-17" d="M356.14,399l1.06-1.2q2.08,4.77,4.19,9.52a5.35,5.35,0,0,1-.41,5.64c-3.32,4.73-6.6,9.49-9.9,14.25l-1-1.1c2.26-3.65,4.21-7.54,6.87-10.86,2.82-3.52,3.82-6.69,1.25-10.72C357.2,402.85,356.82,400.81,356.14,399Z"/>
      <path class="cls-18" d="M890.13,526c-3.26-3.35-4-8-6.15-11.91-3.13-5.67-6.5-11.17-10-16.63,6.42,6.16,10.32,14,14.46,22.64.36-1.72.52-2.51.69-3.31C890.57,519.69,890,522.86,890.13,526Z"/>
      <path class="cls-19" d="M598,967.15l.94.83a103.37,103.37,0,0,1-8.87,7,31.45,31.45,0,0,0-5.25,4.76c-.33-.63-.67-1.25-1-1.88Z"/>
      <path class="cls-20" d="M817.08,191.76c-.38,11.47-4.16,23.29-6.67,35.33-5.51,26.41-15.43,51.25-26.62,75.68-5.2,11.37-7.8,23.71-12.06,35.43-4,11.1-7.49,22.42-12.42,33.2-2,4.38-3.82,8.87-5.45,13.41-2.33,6.49-2.31,6.66-8.35,2.95-5.53-3.4-10.74-7.18-17.3-8.66-7.63-1.73-15.28-1.56-22.86-.68a18,18,0,0,1-10.86-2.08c-10-5-20.59-8.53-30.52-13.71-14.31-7.46-28-16.21-43-22.33-13.73-5.59-27-12.21-40.35-18.6-9.84-4.7-20-8.89-29.37-14.75-2.93-1.84-6.35-2.9-9.48-4.43-2.84-1.38-6.33-2.29-8.25-4.52-4.44-5.14-10.31-6.48-16.35-7.61-12.91-2.43-24.59-8.15-36.48-13.31-1.77-.77-2.3-1.63-1.19-3.39,6.65-10.56,11.21-22.29,19-32.27,6.9-8.89,15.08-16.45,23.14-24.13a232.16,232.16,0,0,0,26-29c8.45-11.33,16.46-23,25.21-34.12,6.05-7.7,14-13.26,20.94-20,10.94-10.55,24.3-17.38,37.54-24.42,4.61-2.46,9.37-2.94,14.51-2.39,20.34,2.16,40.66,4.26,60.63,9.16,6.84,1.67,14.16,1.36,21.14,3.29,10.19,2.81,19.19,8.31,28.94,12.13,7.12,2.79,14.17,5.64,21.42,8.15A117.66,117.66,0,0,1,807.74,155c2.76,2,4.13,4.65,5.06,7.77A111.75,111.75,0,0,1,817.08,191.76ZM720,132.92a21.15,21.15,0,0,0-3,.22c-2.25.48-4.85.63-5.63,3.37s1,4.82,3.06,6.29c4.47,3.13,9.39,4.3,14.65,2.31,4.51-1.71,5.09-6,1.15-8.82C727.19,134.17,723.86,132.56,720,132.92Z"/>
      <path class="cls-20" d="M815,161.21c6.66,6.25,13.12,12.36,18.65,19.53,8.72,11.32,18.59,21.74,27.57,32.86,5.62,7,11.37,13.88,14.14,22.75,1.7,5.42,5.4,9.93,8.63,14.58,9.26,13.31,13.9,27.94,15.47,44.2,1.32,13.71,1.61,27.55,4.1,41.22,1.65,9.07.21,18.58.65,27.8.73,15.44,1.11,30.84.73,46.27a1.68,1.68,0,0,1,0,.5c-3.82,10.53-5.27,21.92-10.54,31.87-6.06,11.46-14,21.89-19.2,33.85-1.93,4.45-4.11,4.59-7.31,1.52-1.55-1.5-3.4-2.77-4.69-4.46-6.68-8.79-16.26-13.55-25.17-19.51-10.25-6.84-21.63-11.85-31.17-19.71-2.22-1.83-5-1.58-7.4-2.79-15-7.7-28.52-17.12-38.44-31.05-1-1.36-1.81-3.05-3.15-3.84-5.39-3.16-4.61-7.13-2.26-11.77,8.52-16.83,14.42-34.78,21.06-52.34,4.22-11.17,7.72-22.74,12.54-33.64a371.18,371.18,0,0,0,18.95-52c4.63-17,9.85-34,10.85-51.72C819.63,183.79,817.72,172.51,815,161.21Z"/>
      <path class="cls-20" d="M524.3,294.68c-5.41,3.4-10.82,4.91-16.28,6.18-11.52,2.68-22.88,6.23-34.43,8.49-17.38,3.4-34.82,7.78-52.86,5.89-9.35-1-18.65.35-27.91,1.26-10.38,1-20.63.17-30.88-.95-3.32-.36-6.66-1-9.93-.54-16.74,2.54-33.21.23-49.7-2.27-7.58-1.15-15.17-2.16-22.74-3.31-16.77-2.54-32.4-8.89-48.2-14.64-6.21-2.26-11.32-6.32-16.38-10.41a18.8,18.8,0,0,0-7-3.68,58.78,58.78,0,0,1-33.56-23.58c-5-7.17-4.21-15.56-3.93-23.64.15-4.14,4.15-4.13,7.28-4.52a128.54,128.54,0,0,1,25.93-.8c20.64,1.62,41.24-.41,61.86-.11,11.65.17,23.24,1.38,34.92,1.06,23.6-.65,47.22-.72,70.83-1.18,2.65-.06,4.66.82,7,1.87,21.77,9.91,40.32,25.34,61.77,35.79,10.71,5.22,22.26,7.91,33.34,12,13.57,5,26.47,11.89,40.88,14.56C517.43,292.71,520.84,292.65,524.3,294.68Z"/>
      <path class="cls-20" d="M383,217c18.88-15.12,36-32.36,56.15-46,4.94-3.34,10.23-6.17,14.83-10,10-5.41,18.28-13.32,28.47-18.44,12.65-6.34,25.16-12.9,39.24-15.67a40.17,40.17,0,0,0,9.54-2.89c20.08-9.55,41.58-12.39,63.42-14.24,8.06-.69,16-3.13,24.16-3.39,3.4-.11,6.85-.88,10.18.49-.34,1.93-1.76,2.29-2.89,2.85-29.71,14.87-53.44,36.56-72.25,63.72-10.93,15.79-22.64,30.75-37.09,43.61A150.11,150.11,0,0,0,478,270.34c-1.58,3.68-3.4,4.11-7.26,3a200.75,200.75,0,0,1-56.4-26c-10.52-7.08-21.74-12.93-33.07-18.58-7.42-3.7-7.36-3.8-1.05-8.92A35.37,35.37,0,0,0,383,217Z"/>
      <path class="cls-21" d="M231,298.33c8,2.64,15,4.62,21.8,7.22,15.73,6,32.29,7.88,48.75,10.41,14.19,2.17,28.39,3.89,42.77,3.06,6.62-.38,13.17-1.63,19.87-.1,3.25.74,3.77,1.57,2.29,4.58a259.57,259.57,0,0,0-16.69,44.87,21.46,21.46,0,0,0-1,8.87c.38,2.59-.41,3.53-3.36,3-18.58-3.43-34.93-12.73-52.08-19.84-6.73-2.79-11.59-8.86-17.36-13.37-16.4-12.83-29.73-28.55-42.5-44.81C232.74,301.35,232.24,300.35,231,298.33Z"/>
      <path class="cls-20" d="M904,459a25.65,25.65,0,0,0-2.7,13.46c.09,1.84.59,3.9-.55,5.32-5.41,6.72-6,15.32-9.22,22.87-1,2.34-1.45,5.23-4.39,6.27-1.92-7.23-7.2-12.59-10.76-18.91-1.89-3.36-1.86-5.84-.2-9.12a301.94,301.94,0,0,1,18.27-31.39c.79-1.18,1.37-2.95,3.25-2.6,1.64.31,2.42,1.81,2.81,3.24C901.47,451.76,903.58,455.08,904,459Z"/>
      <path class="cls-17" d="M786.46,427.67c6.63,9.37,9.52,20.48,15.42,30.3l-5.74-20.74c1.85.65,1.83,1.87,2.11,2.82,3.14,10.71,5.68,21.64,9.55,32.08,4,10.7,6.39,21.87,10.56,32.49,4.38,11.16,8.52,22.42,12.74,33.64a16.16,16.16,0,0,1,1.18,5.09c-7.42-17.25-14.35-34.66-20.41-52.46a415.62,415.62,0,0,0,13,72.42c-1.25-3.89-2.7-7.73-3.72-11.69-5.54-21.46-9.84-43.13-11.39-65.33-.56-8.07-4.84-15.15-7.95-22.49Q794.21,445.71,786.46,427.67Z"/>
      <path class="cls-22" d="M558.94,378.1l-3.09-2.19c-.84,2.1,0,3.82.35,5.47a301.45,301.45,0,0,0,9.21,37.31c1.06,3.3,4.75,4.86,4.81,9,.06,4.25,1.21,8.52,2.17,12.71,1.94,8.35,3.72,16.79,9.32,23.78-3.06-1.19-4.54-3.68-5.81-6.38a64.83,64.83,0,0,1-4.74-15.23,117,117,0,0,0-6.35-22c-5-12.21-7.81-25.11-9.89-38.13-1.13-7.14-3.19-13.78-7.67-19.74-4.07-5.43-7.32-11.47-11.51-17.09.65,1.82,1.3,3.64,2.1,5.86-6.57-6.88-14.63-31.41-13.46-40.32,6.53,19.43,13.87,38.47,26.93,54.66,2.4,3,3.6,6.82,6.75,9.22C558.35,376.06,558.64,377.08,558.94,378.1Z"/>
      <path class="cls-12" d="M767.92,482.21c-2.2-3.2.17-6.88-1.35-10.78-4.63,6.21-7.68,12.9-10.46,19.68-5.83,14.2-13.12,27.67-20.05,41.31-3.31,6.53-9.09,11.09-14.46,15.74-7.59,6.55-14,14.37-23.88,18.45-6.45,2.67-13.05,3.68-19.56,5.49l-1.47-.73,1.33-1.2c6.34-2.29,13-3.07,19.39-5.84,9.59-4.17,15.66-12,23.32-18.21,17.83-14.36,23.48-36.08,33.1-55.36,4.06-8.14,7.32-16.69,13.12-23.86C769.78,471.85,767.27,477.13,767.92,482.21Z"/>
      <path class="cls-23" d="M558.94,378.1c-.3-1-.59-2-.88-3.07a167.17,167.17,0,0,1-5.9-31.6,35.94,35.94,0,0,1,.41-8.33Q553.8,342.57,555,350l0-.06c.28,13.91,5.52,26.5,10.22,39.23a18.83,18.83,0,0,0-.93-4.78c-2.48-9.44-6.31-18.53-7.3-28.35l.92-1c4.93,17.18,8.32,34.83,16.65,51,.84,1.64-.21,5.45.6,8.3C568.29,402.89,564,390.34,558.94,378.1Z"/>
      <path class="cls-24" d="M872.19,553.92c6.32,9.2,8.06,19.58,8.82,30.53,1.72,24.9,6.56,49.4,10.37,74,.27,1.78,1,3.54-.14,6.43-2.18-12.52-4.61-24-6.12-35.61-2.42-18.59-6.64-37-6.22-55.92.11-4.8-3.28-8.49-5.19-12.68,1.15,6.47,3.28,12.72,3.18,19.45q-3.39-13.1-6.77-26.21Z"/>
      <path class="cls-25" d="M871.78,662.3c-4.27-13.78-8.15-27.69-12.92-41.29-4.28-12.23-3.8-25.22-7.18-37.56-3-11.06-5.36-22.31-7.93-33.49-.24-1-1.07-2.13.45-3.71,4.88,21.22,9.6,42.06,15.2,62.9l-2.51-3.39C860.9,625.73,868.3,643.48,871.78,662.3Z"/>
      <path class="cls-26" d="M565,351c-1.17,2.72.56,4.86,1.6,7,3.59,7.47,7.37,14.85,11.07,22.27l-1.16.64-12.73-25.07c0,15.07,8.73,27.07,13.44,40.45C570.57,382,560,369.11,561.66,351.86c.24-2.48-1-4.51-1.82-6.67-2-5.31-3.8-10.66-4.11-16.4-.07-1.22,0-2,1.51-1.7l10.89,19.82-.26.19c-4.17-3.28-5.49-8.73-9.37-12.29,1.59,5.36,1.41,11.51,7.08,14.94A9.58,9.58,0,0,1,565,351Z"/>
      <path class="cls-27" d="M365,393c-7.65,2.52-13.42-3.79-11.86-13,4.28-1.81,4.28-1.81,5.47,1.72,2.32-2.29,3.45-6,7.37-5.9,1.25,2.67.12,6.27,3.18,8.24A30.34,30.34,0,0,0,365,393Z"/>
      <path class="cls-17" d="M801.2,594.19a47.53,47.53,0,0,1-5.08-16.11c-1.94-13.55-7.86-25.75-12.29-38.45-3.3-9.44-6.81-18.8-9.06-28.57a14.89,14.89,0,0,1-.24-8c4,19.08,10.63,36.13,17.68,53.2a74.72,74.72,0,0,1,.53-15.94C793.54,558.6,796.88,576.48,801.2,594.19Z"/>
      <path class="cls-28" d="M823.09,473.94c12.42,19.19,25.59,37.9,37,57.72,1,1.72,2,3.45,3,5.18-.06.47-.11.95-.17,1.42C857,529,851.1,519.84,845.25,510.58,841,503.85,836.88,497,832,490.75a7.66,7.66,0,0,0-4.07-4.67c-3.38-7.4-8.49-13.57-14.07-19.62,2.73.78,2.73.78,5.16,3.53A11,11,0,0,0,823.09,473.94Z"/>
      <path class="cls-26" d="M369.13,384.09c-3.06-2-1.93-5.57-3.18-8.24,3.91-4.11,9.49-.47,13.77-3a8.19,8.19,0,0,1,2.38-.52l1.09,1.82c-2.53,1.53-1.72,4.73-3.22,6.62-1.15,1.45-3.18,2.2-4.82,3.27-1-2.18-2.1-.57-3.17-.11C371,381.86,370.07,383.73,369.13,384.09Z"/>
      <path class="cls-18" d="M799.86,528.83a312.47,312.47,0,0,0,16.35,77.29C805.59,581.44,800.59,555.55,799.86,528.83Z"/>
      <path class="cls-29" d="M900.79,709.87c-11.27-23.64-19.24-48.47-25.28-74C883.27,660.77,890.94,685.66,900.79,709.87Z"/>
      <path class="cls-30" d="M820.4,575.23c-7.42-22.8-13.44-45.92-16.11-69.82C809.34,528.76,814.12,552.17,820.4,575.23Z"/>
      <path class="cls-29" d="M878.21,539.17a452.36,452.36,0,0,0-28-66.77C856.25,476.74,877,526.27,878.21,539.17Z"/>
      <path class="cls-31" d="M383.19,374.2l-1.09-1.82c2.16-2.59,10.64-4.7,13.29-2.65,2.38,1.83,5.22,1.9,7.62,3.27,0,.3.06.6.1.9-5.86-2.3-10.29-.3-13.73,4.59-1,1.36-1.86,2.75-3.47,3.43a5.31,5.31,0,0,1-.13-4.28C386.61,375.33,385.58,374.2,383.19,374.2Z"/>
      <path class="cls-25" d="M613.8,388a26,26,0,0,1-6.42-16.86l19.53,30.94c-3.94-1.29-5.73-4.71-7.69-7.9C617.74,391.78,616.43,389.33,613.8,388Z"/>
      <path class="cls-32" d="M556.79,403.49c4.65,20.43,7.36,41,18.37,58.86-2.81-1.5-3.42-1.85-5.51-6.59-7.19-16.25-10.94-33.44-13.53-50.92C556.08,404.59,556.37,404.3,556.79,403.49Z"/>
      <path class="cls-16" d="M627.26,394c-5.58-15.6-9.87-31.37-6.74-48.17C619.22,362.41,624.68,378,627.26,394Z"/>
      <path class="cls-29" d="M805.93,655.07c-6-7.92-9.67-17.08-13.61-26a156.81,156.81,0,0,1-10.76-33.1,324.16,324.16,0,0,0,24.47,58C806,654.3,806,654.68,805.93,655.07Z"/>
      <path class="cls-18" d="M827.91,486.08a7.66,7.66,0,0,1,4.07,4.67q8,17.12,16,34.23a105,105,0,0,1,5.31,12.26C844.31,520.46,835.41,503.62,827.91,486.08Z"/>
      <path class="cls-30" d="M803.25,517.19c-6.65-16.69-14.27-33-18.61-50.53C790.58,483.61,798.22,499.93,803.25,517.19Z"/>
      <path class="cls-29" d="M820.87,626.66c7.2,17,17.67,31.79,29.06,46C837.22,659.25,826.65,644.44,820.87,626.66Z"/>
      <path class="cls-30" d="M797.08,617.09v-4.93c4.35,18.14,13,34.26,21.55,50.65-1.93-3.07-4-6.09-5.76-9.23s-3.47-6.45-5.1-9.72c-2.3-4.61-4.52-9.25-6.77-13.88Q799,623.55,797.08,617.09Z"/>
      <path class="cls-22" d="M837,647.49c-9-16-17.32-32.33-20.11-50.85C821.3,614.52,829.29,630.93,837,647.49Z"/>
      <path class="cls-17" d="M787,488.56c1.62,16.62,5.76,32.66,10.29,48.61C791,521.56,787,505.44,787,488.56Z"/>
      <path class="cls-33" d="M568.13,346.91l-10.89-19.82c-1.71-4.92-4.91-9.3-5-14.88C558,324.4,563.49,336.76,571,348,569.74,348.52,569,347.51,568.13,346.91Z"/>
      <path class="cls-25" d="M797.08,617.09q2,6.45,3.92,12.89c1.22,8.8,5,16.79,7.93,25l-3,0,0,0c0-.39.06-.77.1-1.16,1-2.7-.9-4.77-1.72-7-3.49-9.48-6.1-19.22-8.77-28.94-.16-.59-1.24-1.86.55-1.94C796.41,616,796.75,616.72,797.08,617.09Z"/>
      <path class="cls-34" d="M529.11,301.41c4.2,14.83,9.34,29.3,14.08,43.9C536.91,331.18,531.77,316.67,529.11,301.41Z"/>
      <path class="cls-35" d="M867.43,525.32a26.15,26.15,0,0,1,1.84,3.41c4.88,13.39,9.71,26.8,13.43,40.63l-16.17-43.63Z"/>
      <path class="cls-26" d="M773.91,632.06c-3.47-4.59-6.41-9.38-5.89-15.5,1.44,4.28,2.4,8.76,6.39,13.3-1.08-6.36-4.86-10.9-3.41-16.49,1.33,7.73,5,14.57,8,21.63C776.72,635,776.33,631.8,773.91,632.06Z"/>
      <path class="cls-26" d="M568.13,346.91c.88.6,1.61,1.61,2.91,1.08,2.85,4.45,5.78,8.84,8.49,13.38.7,1.18,3.21,2.68,1.08,4-2.33,1.46-2.83-1.49-3.71-2.81-2.74-4.12-5.3-8.37-7.92-12.56l-1.11-2.92Z"/>
      <path class="cls-35" d="M876.15,506.47a164.88,164.88,0,0,1,15.05,33.76C885.66,529.21,881.27,517.67,876.15,506.47Z"/>
      <path class="cls-36" d="M567.87,347.1,569,350l-4,1a9.58,9.58,0,0,0,.57-1.25c-5.67-3.43-5.49-9.58-7.08-14.94C562.38,338.37,563.7,343.82,567.87,347.1Z"/>
      <path class="cls-37" d="M613.8,388c2.63,1.35,3.94,3.8,5.42,6.18,2,3.19,3.75,6.61,7.69,7.9,2,2.85,4.8,4.84,7.8,7.48C628.24,408.69,619.66,399.56,613.8,388Z"/>
      <path class="cls-38" d="M773.91,632.06c2.42-.26,2.81,3,5.09,2.94l11.54,17.42A109.67,109.67,0,0,1,773.91,632.06Z"/>
      <path class="cls-39" d="M607,402,596.16,374c3.43,3.56,4.52,8.18,6.4,12.42,1.75,3.94,3.44,7.9,4.91,11.94.38,1.06,2.54,2.88-.5,3.67Z"/>
      <path class="cls-40" d="M645,377.34c6.2,6.52,11.92,13.54,18.16,20.1A76.15,76.15,0,0,1,645,377.34Z"/>
      <path class="cls-41" d="M612.88,430.82c-6.33-6.95-9.61-15.66-13.3-24.15C604.56,414.39,608,423,612.88,430.82Z"/>
      <path class="cls-29" d="M806,655l3,0c2.41,6.27,6.38,11.83,7.93,18.57C813.77,667.06,809,661.61,806,655Z"/>
      <path class="cls-25" d="M597.48,386.56a65.94,65.94,0,0,1-12.06-22.26Z"/>
      <path class="cls-29" d="M596.49,348.75,583.21,328.8l1.25-.81,13.2,20.16Z"/>
      <path class="cls-18" d="M848.47,503.67a63.64,63.64,0,0,1,10.34,21.89Q853.65,514.61,848.47,503.67Z"/>
      <path class="cls-42" d="M862.92,538.26c.06-.47.11-1,.17-1.42,4.73,4.79,6,11.42,9.1,17.08l-2.07,0C868.59,548.32,864.93,543.67,862.92,538.26Z"/>
      <path class="cls-43" d="M581,426.67l8.22,17.05C584.63,438.94,581.49,433.46,581,426.67Z"/>
      <path class="cls-29" d="M823.09,473.94A11,11,0,0,1,819,470c.85-4.63-3.5-7.88-3-12.47C818.23,463,821.75,468,823.09,473.94Z"/>
      <path class="cls-17" d="M859.9,678.09c-4.9-4.72-7.69-10.86-11.07-16.6,4.14,5.21,8.33,10.39,11.26,16.43Z"/>
      <path class="cls-24" d="M585.78,424.72c3.24,5.13,5.94,10.61,9.77,15.82C592,438.76,588,432.27,585.78,424.72Z"/>
      <path class="cls-13" d="M871.09,691.91l11.68,12c-4.48-3.41-9.18-6.6-11.86-11.81Z"/>
      <path class="cls-22" d="M546.75,308.46l6.83,13.73c-.39.19-.77.39-1.15.59l-7-14Z"/>
      <path class="cls-40" d="M650.06,361.39l10.77,10.52A34.57,34.57,0,0,1,650.06,361.39Z"/>
      <path class="cls-18" d="M870.91,692.07a45.23,45.23,0,0,1-11-14l.19-.17a78.67,78.67,0,0,1,11,14Z"/>
      <path class="cls-26" d="M557.89,355.09l-.92,1c-.66-2-1.33-4.07-2-6.1l0,.06V338.21A167,167,0,0,0,557.89,355.09Z"/>
      <path class="cls-18" d="M607,402c.32,2.24,2.46,3.41,3.3,5.44-3.7-1.74-6-5-7.43-10.5L607,402Z"/>
      <path class="cls-44" d="M411.87,774.18a7.79,7.79,0,0,0,.05,2.37c.67,2.05,1.52,5.41.24,5.89a5.76,5.76,0,0,1-7.22-2.45c1.14-1.92-.08-3.38-.82-5-2.8-6.22-9.19-10.05-11.14-16.82-.17-.61-.38-1.67-1.67-1.36l.48,2.44c-1.67,1-.92,2.52-.92,3.89-5.33-5.31-7.9-12.06-10-19.07l3.1,1,3.19,6.88c1.5-4.15-.9-7.23-1.25-10.6.38-2.58,2.52-3.79,4.17-5.4.72,1.3,1.49,2.57,2.15,3.89.45.89.67,1.88,1.12,2.76,1.72,3.38-2.7,0-2.18,2a55.33,55.33,0,0,0,7.63,17.56L397.15,755l.94.1c1.7,4.42,3.32,8.88,5.14,13.26.65,1.57,1.57,2,1.59-.36,1.72-.8-.66-4.87,3.18-4C410,767.11,410.44,770.84,411.87,774.18Z"/>
      <path class="cls-45" d="M393,626.09c.58-1,1.16-2.35,2.38-2.14,1.67.3.75,1.82.73,2.82-.06,2.42-.43,4.86.65,7.18v2.83a9.48,9.48,0,0,0-.17,5.75c.88,4.48,1.48,9,2.19,13.53-1.76,6.62-.31,13.39-.91,20.06-1.78-5.56-.16-11.42-1.78-17,.05,10.29-.86,20.58,1,30.82-.37,1-.74,2-1.12,3.06-1.87-.66-2-2.66-3-4-1.76-2-.62-4.73-1.6-7.36-.86,2.32-1.58,4.29-2.3,6.26-.05-6.25-.55-12.52.68-18.72.06-1.28.12-2.56.2-4.11,1.77,1.5.42,3.9,3,5.61-2.39-9.41.37-17.86,1.39-26.46a5.41,5.41,0,0,0-.17-1.78c-4.71,0-1.16-2.12-1-3.46C393.88,634.68,395.31,630.34,393,626.09Z"/>
      <path class="cls-46" d="M409.83,748.14c-1.17,2-.7,3.8.38,5.64,1.35,2.29,2.56,4.67,4,6.92,2.34,3.71,4.5,7.4,1.54,12.3-1.72-5.07-3.48-10-6.74-14l-2.07-2-4-5.91,0-2.12-3-6.8c1.2-1.77.36-3.54,0-5.31-.82-4.08-2-8.12-2.45-12.24-.86-7.53-2.92-15.08-.48-22.7,1.16,1.79,1.05,3.82,1,5.79-.32,8,.73,15.85,2.08,23.69.8,4.67,2.67,8.91,5.27,13.87.37-5.63-4.11-9.38-2.3-14.24l2,3Q407.43,741.07,409.83,748.14Z"/>
      <path class="cls-47" d="M393,776.93c-.44-.67-.89-1.33-1.58-2.36.7,6.2,2,8.4,7.56,13.41-1,2-2,.38-2.95,0-3.51-4.32-8.88-6.6-12.24-11.08l.9-2.16,4.24,3a221.53,221.53,0,0,0-10.33-20l3.55,13.32c-3.8-5.86-5-12.69-7.05-19.18,1.87.52,2.3-.33,1.86-2,1.62-3.55.76-7.36,1.12-11l2-5c.32,1.38.64,2.75.95,4.12-1.22,1.83-2.43,3.66-1.12,6,1.12,12,7.12,21.46,15.08,30Z"/>
      <path class="cls-48" d="M349.72,674.86,353.8,662q1.17-5,2.32-9.91c4.18-4.55,4.57-10.71,6.88-16.06,1.43-2.82,2.7-5.73,4.86-8.1l2.21,1.2c-5,7.28-7.73,15.5-10.15,23.87-4.81,2.87-4.42,7.45-4,12l-.16,2q-1.84,5.82-3.7,11.63Q349,688.81,346,699c-2.45,1.74-2.45,1.74-5.42,1.23,3.84-2.87,5.25-6.77,5.34-11.28q1-2.51,1.93-5C349.92,681.21,351.56,678.39,349.72,674.86Z"/>
      <path class="cls-49" d="M393,626.09c2.27,4.25.84,8.59.23,12.89-.19,1.34-3.74,3.48,1,3.46a5.41,5.41,0,0,1,.17,1.78c-1,8.6-3.78,17-1.39,26.46-2.59-1.71-1.24-4.11-3-5.61-.08,1.55-.14,2.83-.2,4.11l-1.65,1.88a13.08,13.08,0,0,0-.43-1.78c-1.19.12-.49,1.13-.68,1.74a10,10,0,0,0-.22,1.9c-.79-1.21-.78-3.2-3-3,.07-.6.14-1.19.22-1.79l2.88-7.15c1.83-5.15,3.27-10.38,3.09-15.92.42-5.4-.5-10.95,1.71-16.16Z"/>
      <path class="cls-50" d="M396.06,788c1,.35,2,2,2.95,0,1.09,1.39,4.53,1.73,3.33,3.8-1,1.71-4.14,1.21-6.33,1-1.38-.16-2.68-1.08-4-1.66l-4.06-3a17.73,17.73,0,0,0-5.91-7.67c-5.19-4.17-9.32-9.1-11.55-15.73a191.44,191.44,0,0,1-6.1-22c-.81-3.87-.74-7.92-2.36-11.62.06-3.07.11-6.14.17-9.2.45,2.43,1,4.85,1.33,7.31,1,8.1,4.93,15.64,5.72,23.61C371,770.33,381.46,780.57,396.06,788Z"/>
      <path class="cls-51" d="M398.82,656.06c-.71-4.51-1.31-9-2.19-13.53a9.48,9.48,0,0,1,.17-5.75c.39,1.07.77,2.14,1.15,3.21,1.87,5.43,1.87,11.15,2.79,16.79q1.58-7.93,3.16-15.85c2.2.42.62-1.44,1.2-2,1.37,8,.44,16.11,1,24.15-.6,3.62.66,7.42-1.11,10.92-.88-2.26-.44-4.91-2-7,1.08-1.93,1.42-3.85-.25-6.63-2.82,4.83-1.08,9.54-1.93,13.83-1.17,1.95-.67,4.17-2,6.28Z"/>
      <path class="cls-52" d="M398,640c-.38-1.07-.76-2.14-1.15-3.21V634c.82-3.7,1.65-7.4,2.49-11.14,1.5-.14,1.08,2.05,2.91,2,1.12-3.39-1-8.23,4.09-10.77-1.34,5.89,1.57,11.19.84,16.78l-1.24,3.39c-1,1.47-.79,3.12-.79,4.74-.58.56,1,2.42-1.2,2-.06-3.7-3.57-5.72-4.69-9.1Z"/>
      <path class="cls-53" d="M397,701.91c-2.44,7.62-.38,15.17.48,22.7.47,4.12,1.63,8.16,2.45,12.24.35,1.77,1.19,3.54,0,5.31-2.66-5.73-3.09-12-4-18.07-1.54-7.39-.35-15.07-1.88-22.47-2.05,4.59.32,9.56-1.94,14,.17-8.89-1.07-17.83,1-26.65,1,1.32,1.08,3.32,3,4q1,2.5,2,5Z"/>
      <path class="cls-33" d="M380.94,633.06c1.82-1,1.34-7,5.89-2.5,1,1,1.92-1.65,2.72-2.77.34-.47.66-1.4,1.39-.72.36.34.22,1.22.3,1.86-1.22,4.25-4.39,7.63-5.33,12-3.2,4.15-3.34,9.16-4,14h-2C381,647.7,381.83,640.42,380.94,633.06Z"/>
      <path class="cls-17" d="M405.1,638.93c0-1.62-.17-3.27.79-4.74,1.8,3.95.44,8.44,2.35,12.42v-6.76c1.49.65,2.76,1.69,2.43,3.38-1.29,6.66,1.25,13.25.19,19.88-.42-1.11-.84-2.21-1.51-4l-.52,4h-2.72C405.54,655,406.47,646.94,405.1,638.93Z"/>
      <path class="cls-5" d="M397,701.91l1-3.9.93.82A168.61,168.61,0,0,0,403,731c-1.81,4.86,2.67,8.61,2.3,14.24-2.6-5-4.47-9.2-5.27-13.87-1.35-7.84-2.4-15.7-2.08-23.69C398.06,705.73,398.17,703.7,397,701.91Z"/>
      <path class="cls-54" d="M393,776.93l2-3,1.1-1.06c3,3.74,5.09,8.2,8.94,11.27a23.83,23.83,0,0,1,1.94,1.5c.68.65,1.81,1.34,1,2.41a2.22,2.22,0,0,1-2.74.29c-2.19-1-4.6-1.43-6.13-3.75C397.32,781.9,395.08,779.47,393,776.93Z"/>
      <path class="cls-33" d="M379.05,633l1.17.83c-3.88,7.74-3.1,15.93-2.38,24.13-2.68,1.2-2.55,3.69-2.76,6-2.58-1.19-1.33-3.25-1.14-5.06.31-3,1.95-5.95,0-8.94C374.74,644,374.66,637.85,379.05,633Z"/>
      <path class="cls-55" d="M406.11,663.08h2.72c.05,2.81,0,5.62.18,8.42.3,5.39-1,10.87.89,16.17.08,2.17.34,4.36-.9,6.34l-2.14-12.67L405,674C406.77,670.5,405.51,666.7,406.11,663.08Z"/>
      <path class="cls-56" d="M400.81,674.22c.85-4.29-.89-9,1.93-13.83,1.67,2.78,1.33,4.7.25,6.63-1.22,1.75-1,3.76-.92,5.7.32,6.36.74,12.71,1.12,19.06l-.09,13.49c-.12.11-.25.33-.35.31-1-.14-.68-1-.7-1.53Q401.41,689.14,400.81,674.22Z"/>
      <path class="cls-57" d="M403.1,705.27l.09-13.49c1.8-1.08,1.75-3.19,2.63-4.79.43,3.71,1.7,7.34,1.06,11.15-1.64,5.17.25,10.81-2.21,16.67C403.31,711.27,404.7,708,403.1,705.27Z"/>
      <path class="cls-8" d="M377.84,658c-.72-8.19-1.5-16.38,2.38-24.12l.72-.77c.89,7.36.1,14.64-1,21.91-.35,1-.7,2-1,3Z"/>
      <path class="cls-42" d="M403,731A168.61,168.61,0,0,1,399,698.83c2.89.39,2,2.7,2,4.3,0,6.34,1.14,12.54,1.85,18.8.48,4.16,3.62,7.09,4.21,11.08l-2,1Z"/>
      <path class="cls-8" d="M391.79,759.22l-.48-2.44c1.29-.31,1.5.75,1.67,1.36,1.95,6.77,8.34,10.6,11.14,16.82.74,1.65,2,3.11.82,5L403,779C399.26,772.42,394.71,766.28,391.79,759.22Z"/>
      <path class="cls-58" d="M411.14,744.87c5.66,5,7.88,11.21,7.81,19.77-3.52-3.3-4.38-6.69-5.95-9.64C414.19,751.29,410.16,748.54,411.14,744.87Z"/>
      <path class="cls-59" d="M391.79,759.22c2.92,7.06,7.47,13.2,11.2,19.8q1,2.58,2.08,5.14c-3.85-3.07-5.94-7.53-8.94-11.27q-2.64-4.89-5.26-9.78C390.87,761.74,390.12,760.19,391.79,759.22Z"/>
      <path class="cls-60" d="M374,633.09c.27.62.54,1.25.8,1.87L373,643c-2,5.23-2.48,10.93-5,16l-1.06,0c.31-1.38.61-2.77.92-4.15.35-7.23,3.11-13.87,5-20.72Z"/>
      <path class="cls-61" d="M409.9,687.66c-1.9-5.3-.59-10.78-.89-16.17-.16-2.8-.13-5.61-.18-8.42l.52-4c.67,1.79,1.09,2.89,1.51,4C411.09,671.32,411.23,679.52,409.9,687.66Z"/>
      <path class="cls-62" d="M374,633.09l-1.14,1-1.85.91a6.68,6.68,0,0,1,.25-4.32c.33-1.06.43-2-1.23-1.6l-2.21-1.2c1.63-1.41-.1-5.27,1.79-5,2.24.37,4.45,2.84,6,4.89S374.57,631.29,374,633.09Z"/>
      <path class="cls-61" d="M373,643l1.83-8c1.33-2.21,2.14-4.8,5-6.69-.32,1.87-.55,3.3-.79,4.73-4.39,4.85-4.31,11-5.07,17-.22,1,.44,2.18-.8,3.26C372.22,649.7,373.39,646.33,373,643Z"/>
      <path class="cls-31" d="M363,636c-2.31,5.35-2.7,11.51-6.88,16.06,0-5.5,2.4-10.47,3.4-15.76C360.09,633.3,361.72,635,363,636Z"/>
      <path class="cls-63" d="M397.1,689.92c-1.83-10.24-.92-20.53-1-30.82,1.62,5.6,0,11.46,1.78,17C397.49,680.71,399.07,685.42,397.1,689.92Z"/>
      <path class="cls-18" d="M406.9,757l2.08,2-1,4.21a5.79,5.79,0,0,1,0,.83c-3.84-.91-1.46,3.16-3.18,4-2.46-3.33-1.88-7.17-1.83-10.92C404.29,756.85,405.64,760.74,406.9,757Z"/>
      <path class="cls-19" d="M411.14,744.87c-1,3.67,3.05,6.42,1.86,10.13-1.06-2.29-2.11-4.58-3.17-6.86Q407.42,741.06,405,734l2-1C408.14,737,408.57,741.33,411.14,744.87Z"/>
      <path class="cls-32" d="M385.91,640.94c.94-4.38,4.11-7.76,5.33-12l.52-.07c-2.21,5.21-1.29,10.76-1.71,16.16-1.54-1.06-.78-4.44-3.92-3.92Z"/>
      <path class="cls-64" d="M406.88,698.14c.64-3.81-.63-7.44-1.06-11.15.15-1.92-.13-3.92,1-5.66L409,694q-.6,3.19-1.21,6.39l-.64,0Z"/>
      <path class="cls-59" d="M408,764a5.79,5.79,0,0,0,0-.83c2.88,2.86,6.38,10.48,6.78,14.85-1.72-.77-2-2.58-2.93-3.84C410.44,770.84,410,767.11,408,764Z"/>
      <path class="cls-51" d="M408.24,639.85v6.76c-1.91-4-.55-8.47-2.35-12.42l1.24-3.39C408.43,633.7,407.91,636.83,408.24,639.85Z"/>
      <path class="cls-25" d="M411.9,707c-.07,3-1.36,5.72-2.69,8.37-1.6-2.74-.46-5.31.5-7.89C410.19,706.16,411,706.16,411.9,707Z"/>
      <path class="cls-65" d="M358.94,579c-3.77-1.73-3.32-5.87-5-8.79-.56-4.26-1.42-8.53-.62-12.81a10.37,10.37,0,0,0-1.33-7.6q.93-3.66,1.87-7.32c2.26-3.16,6.26-3.79,9.09-6.29,2.44-2.14,10.24,1.1,13.1,4.78l2.15,4c-3.38-1-4.3-6.65-9.17-4.91l-1.95,2.58c-5,3-1.45,6.75-1,10.24.51,2.38-.24,5.08,1.73,7.11,1.08,4.45,5.2,7.89,4.27,13-1.36-2.27-2.66-4.57-4.1-6.78-.54-.82-.81-2.61-2.34-1.69-.89.54-.19,1.84-.06,2.8-2,5,.75,8,4.39,10.71-3.79,1.49-4.35-2.07-6-3.86-3.17-6.55-6.71-12.94-8.49-20.11C355.15,562.6,354.66,571.13,358.94,579Zm1.84-29.8c-1.35,5.4-1.33,5.59,1,10.84C362.65,556.39,362.73,552.92,360.78,549.19Z"/>
      <path class="cls-66" d="M378.18,545,376,541c1.16-3.17-1.71-4.77-2.8-7.05-.64-1.34-2-2.71.84-3,7.48,10.91,14.91,21.84,22.44,32.71,2.62,3.77,2.61,8.42,4.52,12.41h-1c-2.18-1.92-1.9-5.07-3.63-7.23-1-1.22-1.71-3.31-3.41-.67C390,559.13,383.7,552.32,378.18,545Z"/>
      <path class="cls-67" d="M353.84,542.47q-.94,3.66-1.87,7.32a5.41,5.41,0,0,0-2.71,4.52c-.1,2.33-1.6,2.49-3.25,2.69a13.78,13.78,0,0,1,8.05-17C353.52,540.78,353.14,541.57,353.84,542.47Z"/>
      <path class="cls-68" d="M340.23,487.12c-4.15,4.51-9.15,8.25-12.12,13.86,1.1-6.94,5.92-11,10.9-15Z"/>
      <path class="cls-69" d="M405,380c7.41-3.53,14.86-2.07,22.31-.21,3.59.89,2.39,5,4.63,7,.59.52-1.07,1.44-2,1.67-2.68.69-5.36,1.58-8.09,1.44-.82-2.39,4.31-.69,2.16-3.75a3.88,3.88,0,0,0-3.16-3.23c1.22-4.36-2.37-2.25-3.9-2.91C412.93,379,408.94,380.64,405,380Z"/>
      <path class="cls-48" d="M405,380c4,.68,8-1,12,0L407.21,386c-1.81-1.82,1.4-2.29,0-3.87l-7.2,3.9c-.89-2.12-3.75-1-4.77-2.91,2.76-1.56,6.2-1.16,8.82-3.1C404.35,380,404.65,380,405,380Z"/>
      <path class="cls-63" d="M385.91,381.92c1.61-.68,2.51-2.07,3.47-3.43,3.44-4.89,7.87-6.89,13.73-4.59l1.75.15c-1.52,1.08-3.1.59-4.73.3-3.23-.56-5.86.28-7.23,3.57-.07,2.17-4.9,2.74-2,5.91L392,385a6.67,6.67,0,0,0-4.44,2.73c-1.4,2.38-3.54,2-5.59,2.23-1-2.95,1.33-3.87,3.17-4.63,3-1.24,1.47-2.12,0-3.17Z"/>
      <path class="cls-66" d="M390.93,383.83c-2.93-3.17,1.9-3.74,2-5.91,2.42-1.18,4.27-1,5,2,2-.42,4.11-1.09,6.14.11-2.62,1.94-6.06,1.54-8.82,3.1Z"/>
      <path class="cls-31" d="M385.16,382.13c1.45,1.05,3,1.93,0,3.17-1.84.76-4.19,1.68-3.17,4.63-.92,1.54-2.11,2.53-4.06,1.93C378.63,387.31,377.27,381.26,385.16,382.13Z"/>
      <path class="cls-63" d="M420.83,382.86a3.88,3.88,0,0,1,3.16,3.23c-3.49.78-7.19.74-10.43,2.5-1.23.66-2.3.69-2.94-.61-.89-1.82.87-1.79,1.8-2.14C415.2,384.78,418,383.84,420.83,382.86Z"/>
      <path class="cls-70" d="M390.93,383.83l4.3-.68c1,1.9,3.88.79,4.77,2.91-3,2.78-7.67,1.25-11,5.18.44-3.3,2.15-4.55,3-6.27Z"/>
      <path class="cls-31" d="M397.91,379.94c-.74-3-2.59-3.2-5-2,1.37-3.29,4-4.13,7.23-3.57,1.63.29,3.21.78,4.73-.3,1.1.68,3.38,1.67-.09,1.83C401.61,376,399.6,377.59,397.91,379.94Z"/>
      <path class="cls-53" d="M369.13,384.09c.94-.36,1.82-2.23,2.85-.11-1.54,2.9-1.84,6.33-3.88,9a2,2,0,0,0-3.13,0A30.34,30.34,0,0,1,369.13,384.09Z"/>
      <path class="cls-59" d="M368.1,393c2-2.68,2.34-6.11,3.88-9,1.07-.46,2.18-2.07,3.17.11-1.73,2-3.69,4-3.87,6.78C371.13,393.16,369.58,392.92,368.1,393Z"/>
      <path class="cls-71" d="M363.89,574.19c1.69,1.79,2.25,5.35,6,3.86,1.93-5-3.47-6.92-4.39-10.71-.13-1-.83-2.26.06-2.8,1.53-.92,1.8.87,2.34,1.69,1.44,2.21,2.74,4.51,4.1,6.78l2.84-1.92c1,2.27.51,6.37,5.1,3.92a5.89,5.89,0,0,0,1.4-3.76c.59-1.8,1.43-.69,2-.09,1.58,1.62,3.07,3.33,4.6,5l-1.22,1c-3.88,1.55-8.1.53-12.06,1.63-2.86.8-5.09,4-8.62,2.3h-1C364.25,578.83,363,576.71,363.89,574.19Z"/>
      <path class="cls-33" d="M346,557c1.65-.2,3.15-.36,3.25-2.69a5.41,5.41,0,0,1,2.71-4.52,10.37,10.37,0,0,1,1.33,7.6c-.8,4.28.06,8.55.62,12.81-2.53,4.39,1.46,7.78,1.75,12.49-5.68-6.66-7.16-14.14-7-22.25l-1.29.26c-.22,1.68-.45,3.35-.75,5.61C345.29,562.9,344.44,560,346,557Z"/>
      <path class="cls-46" d="M363.89,574.19c-.89,2.52.36,4.64,1.24,6.84-3.51-.81-2.6-5.13-5.25-6.78-1.05,1.53.56,3.45-.94,4.74-4.28-7.86-3.79-16.39-3.54-24.91C357.18,561.25,360.72,567.64,363.89,574.19Z"/>
      <path class="cls-49" d="M380,575c-4.59,2.45-4.14-1.65-5.1-3.92C373.07,567,372,562.5,367.77,560c-2-2-1.22-4.73-1.73-7.11,3-1.24,1.53,1.55,2.1,2.43.77,1.17.66,3.63,3.05,1.6,1.27-1.94,2.62.81,3.91-.06,2.71,3.87,5.34,7.82,8.21,11.58.73.95,1.37,3.24,3.52,1.65l.38-.26a5.8,5.8,0,0,1,.79,6.32c-1.53-1.67-3-3.38-4.6-5-.59-.6-1.43-1.71-2,.09-2.46,1.14-2.7-1-3.42-2.36-1.3-2.47-2.55-5-3.82-7.46C374.76,566.66,376.41,571.3,380,575Z"/>
      <path class="cls-72" d="M378.18,545C383.7,552.32,390,559.13,393,568.1l4.59,9.15c-2.93-.39-4.44-2.28-5.87-4.74-3.57-6.14-6.41-12.72-10.78-18.39-.46-4.8-3.61-8.45-7.93-9.16a11.93,11.93,0,0,0-4-4.88C373.88,538.34,374.8,544,378.18,545Z"/>
      <path class="cls-49" d="M373,545c4.32.71,7.47,4.36,7.93,9.16-.55-.36-1.08-1-1.64-1-1.15-.08-.74.82-.51,1.36a20,20,0,0,0,3.77,6.31,18.06,18.06,0,0,1,4.69,9.08l-.38.26C381,563,376.55,555,372.07,547Z"/>
      <path class="cls-6" d="M397.55,577.25,393,568.1c1.7-2.64,2.42-.55,3.41.67,1.73,2.16,1.45,5.31,3.63,7.23A2.19,2.19,0,0,1,397.55,577.25Z"/>
      <path class="cls-73" d="M336.91,750.7c-4.17-1.27-3.45-6.54-6.84-8.52-1.11,1.2.5,2.16-.07,3.81A56,56,0,0,1,324,731c-.83-9.07,1.89-17.59,4-26.19.41-1.63,1.76-2.75,3-3.83q-1.42,7-2.85,14c2.21-.21.69-3.09,3-2.91-.32,5-1.52,9.93-.29,14.93H330l-1.32-1.24a8.81,8.81,0,0,0-.13,1.35c.38,8.33,3.83,15.51,8.4,22.27Z"/>
      <path class="cls-33" d="M349.72,674.86c1.84,3.53.2,6.35-1.87,9.08-.06-.81.18-2-.25-2.34-.92-.8-1.45.32-1.71,1-1.75,4.43-4.5,8.5-4.95,13.41-.68.49-1.36,1.45-2,0-.65-2,3.38-4,.05-6l0,0A54.92,54.92,0,0,1,349.72,674.86Z"/>
      <path class="cls-74" d="M331.1,712.08c-2.26-.18-.74,2.7-3,2.91q1.43-7,2.85-14c1.14.11,2.2,0,2.89-1.07.36,1,.73,2.06,1.1,3.09h-1.11Z"/>
      <path class="cls-75" d="M335,703c-.37-1-.74-2.06-1.1-3.09A27,27,0,0,1,339,690l0,0c-.51,4.44-3.25,8.34-3.2,12.92Z"/>
      <path class="cls-49" d="M354.05,761.33l-2.16-2.19c-1.13-1.42-2.23-2.88-3.39-4.27-9.17-11-14.74-23.14-12.51-37.88,1.83,5.49,1.77,11.3,2.87,16.92.76,3.87,1.8,7.55,4.61,10.56-2.48-6.24-3.41-12.79-4.06-19.33-.49-5-1.64-10.15.68-15.07,1.12,1.82.86,3.85.88,5.83.13,10.71,1.78,21.11,6.16,31,1.29,2.93,2.63,5.79,5.82,7.17l1.05.3.94,1.55C352.7,757.38,353.74,759.42,354.05,761.33Z"/>
      <path class="cls-3" d="M362,731c1.62,3.7,1.55,7.75,2.36,11.62a191.44,191.44,0,0,0,6.1,22c2.23,6.63,6.36,11.56,11.55,15.73a17.73,17.73,0,0,1,5.91,7.67c-2.17.79-3.23-1-4.65-2-8.47-6.89-12.5-16.73-17.24-26.08C363.6,750.47,361.73,740.9,362,731Z"/>
      <path class="cls-18" d="M336,717c-2.23,14.74,3.34,26.9,12.51,37.88,1.16,1.39,2.26,2.85,3.39,4.27-4,.25-5.2-3.47-7.6-5.47-1.57-1.3-2.1-3.66-4.74-4.58,1.22,3.18,2.3,6,3.39,8.81-3.86-.85-4.52-4.37-6-7.2,0-.44,0-.88.07-1.32-.28-1.18-.56-2.35-.85-3.52l3.38-.25c-1.12-2.08-3.14-3.28-3.51-5.49l-2.85-15.43c1.64-2.71,0-6.07,1.77-8.76Z"/>
      <path class="cls-47" d="M366.05,760c4.74,9.35,8.77,19.19,17.24,26.08-5.31-2.61-9.46-6.64-13.32-11l0,0c.53-2.36,0-5.09-1.72-6.1-3.37-1.94-5-5.15-7.29-7.87l1.37,0c1.11.4,1.39,2.32,3,1.68.17-.07-.08-1.15-.13-1.76Z"/>
      <path class="cls-47" d="M354.05,761.33c-.31-1.91-1.35-4,.89-5.44,2.12.85,1.82-.89,2.14-2,.32.05.65.08,1,.11l.84,3.08c-.82,1.58.28,2.85.64,4.25,1.57,6,7.23,8.9,10.46,13.63l0,0C363.7,771.58,359.65,765.55,354.05,761.33Z"/>
      <path class="cls-76" d="M682.15,432.87c10.34,6.38,16.76,16.23,23.75,25.78,4.23,5.78,8.78,11.09,11.32,18,3.42,9.27-2.1,20.18-8.09,25.1-3.92,3.22-8.27,2-12.75.58-12.16-3.86-18-1.25-22.44,6.6-1.78,3.12-3.8,6.3-7.32,8-2.65,1.28-5.24,2.3-7.81-.16s-2.74-5.28-1.45-8.26a64.63,64.63,0,0,1,3.86-7.55c6.4-10.66,5.7-21.84,2.65-33.24a11.71,11.71,0,0,1-.56-2.9c0-1.35.28-2.86,1.74-3.31,1.75-.54,2.09,1.18,2.77,2.24,1.79,2.8,3.55,5.62,5.39,8.39s3.29,2.18,4.62-.5c1.81-3.63,1.4-7.49,1.07-11.26-.79-9.16-1.34-18.28,1.24-27.28Z"/>
      <path class="cls-36" d="M441,424.26c-13-.73-25.6-4.16-38.6-4.1-5.64,0-11.28.31-16.93.41a8.35,8.35,0,0,1-3.39-.46c-2.09-.93-5-2-4.75-4.46s3.28-2.74,5.62-2.91c10.94-.81,21.92-1.45,32.77.51C424.86,414.91,433.11,419.15,441,424.26Z"/>
      <path class="cls-10" d="M531.94,745.87c-28.32,14.29-56.87,28-88.05,35.3,14.19-6.55,29.24-11,43.53-17.28l43.35-19.07Z"/>
      <path class="cls-8" d="M428.78,663.72a101.65,101.65,0,0,1-3.29-27.87c.39-19,6-37.4,6.85-56.35a79.76,79.76,0,0,1,1.46-12.94c1.44,4.24,1.36,8.69.93,13.07-1.28,13.06-3.38,26-5.56,39a116.62,116.62,0,0,0-.45,36.26C429.14,657.74,428.78,660.76,428.78,663.72Z"/>
      <path class="cls-39" d="M679.57,614.38c.44,10.85,2.36,21.64.54,32.52A36.8,36.8,0,0,1,662.79,673c-1,.63-1.94,1.34-3.24.77,0-.25,0-.65.1-.73,18.54-10.9,20.38-28.47,19.05-47.37C678.43,621.91,677.32,618,679.57,614.38Z"/>
      <path class="cls-29" d="M759.82,453.07c-.31,7-3.23,12.88-5.84,18.77-5.9,13.3-14.86,24.73-23.36,36.4-3,4.16-7.32,6.58-12.44,8.07-.19-1.93.41-2.77,1.16-2.85,6.6-.73,9.76-5.71,13.19-10.41,11-15.07,20.9-30.74,26.63-48.7A9.7,9.7,0,0,1,759.82,453.07Z"/>
      <path class="cls-6" d="M506,431.61c-3.62-1.05-5.25-3.8-7.64-5.5-5.28-3.74-11.2-5.6-17.48-6.63-.89-.14-2.21-.16-2.19-1.5s1.27-1.33,2.19-1.56c6.92-1.7,22.29,6.13,24.9,12.7A11.18,11.18,0,0,1,506,431.61Z"/>
      <path class="cls-77" d="M682.15,432.87l-2,.2c.59-10.16,3.93-19.47,8.75-28.34,2.37-4.34,6.38-5.29,11.67-5.83a11.69,11.69,0,0,1-1.66,1.15c-7.21,2.49-7.21,2.49-3.14,8.46a20.48,20.48,0,0,1,4,9.43c-3.24-4.3-4.56-9.38-8.68-12.34-.39.2-.78.26-.88.47-6.21,13.15-8.68,10,5.57,18.8a6.37,6.37,0,0,1,1.93,1.53c-4-.48-7.32-2.63-10.37-5.07-2.62-2.1-3.74-1.25-4.09,1.66C682.8,426.28,681.59,429.49,682.15,432.87Z"/>
      <path class="cls-16" d="M678,570.17l-1.33,1.2,1.47.73c-1.38.74-2.94,1-3.38,3.13-.47,2.34-1.34,5.44-4.36,5.31s-2.18-3.72-3.5-5.51l1.9-.06c.25,1.28.17,3,1.81,3.16s2-1.54,2.33-2.78a63.4,63.4,0,0,0,1.9-20.67c-.08-1.3-.13-2.95-2-2.87-1.45.07-1.48,1.55-1.66,2.68-.73,4.55-1.44,9.1-2.17,13.65l-.9-1.11c.51-4.61,1-9.22,1.57-13.83.24-1.93,1.17-3.8,3.22-3.85s2.68,1.91,3.24,3.78c1.2,4,.58,7.86.27,11.84C676.34,566.66,674.39,569.41,678,570.17Z"/>
      <path class="cls-78" d="M467.65,432.09c9.66,6.71,21.06,7.61,33.24,9.64C490.21,445.48,472.84,440.28,467.65,432.09Z"/>
      <path class="cls-79" d="M697,537c.31.69.61,1.38.91,2.07a40.43,40.43,0,0,1-2.62,4.7c-1.29,1.75-3,3.25-5.4,2.56-1.47-.42-1.75-1.83-1.82-3.19-.13-2.51.55-4.73,3.14-5.5A31.49,31.49,0,0,1,697,537Z"/>
      <path class="cls-80" d="M366.06,429.12c-3.26,10.33-5.91,21-15.32,27.75C357.46,448.5,361.08,438.4,366.06,429.12Z"/>
      <path class="cls-81" d="M745,406.5c-11.65-9.34-24.83-10.9-39-7.89C718.17,392.69,736.46,396.44,745,406.5Z"/>
      <path class="cls-82" d="M425.42,498.68c7.41,9.78,13.43,23.75,14.73,33.48C436.25,520.53,430.77,509.6,425.42,498.68Z"/>
      <path class="cls-40" d="M643,493.86c.67-5.75,1.44-11.49,2-17.26a21.94,21.94,0,0,0-.43-6.41c-.18-.89-1.35-1.75.06-2.31s2.15.7,2.3,1.87a47.62,47.62,0,0,1,.3,6A38.77,38.77,0,0,1,643,493.86Z"/>
      <path class="cls-54" d="M445.88,424.62c6.12-5.58,20.25-6.12,27.67-.77C463.67,422.4,454.68,420.83,445.88,424.62Z"/>
      <path class="cls-75" d="M697,537a31.49,31.49,0,0,0-5.79.64c-2.59.77-3.27,3-3.14,5.5.07,1.36.35,2.77,1.82,3.19,2.44.69,4.11-.81,5.4-2.56a40.43,40.43,0,0,0,2.62-4.7c.67,3.58-.88,6.13-3.82,8-2.33,1.46-4.89,1.85-6.82-.33a5.71,5.71,0,0,1-.66-7.34C689.25,535.28,693,534.39,697,537Z"/>
      <path class="cls-83" d="M668.18,567l.9,1.11c-.09,2.28-.17,4.56-.26,6.83l-1.9.06c-5.54-1.74-11.06-3.53-15.88-7.76,3.8-.66,5.83,2.33,8.6,3.3C666,572.8,666,573,668.18,567Z"/>
      <path class="cls-84" d="M723.48,508.55c3.44-8.21,7.63-16,10-24.51C733.38,493.58,728.26,501.07,723.48,508.55Z"/>
      <path class="cls-85" d="M759.68,436.46c-3.45-8.68-4.51-18.24-10.34-26C757,417.51,758,427.16,759.68,436.46Z"/>
      <path class="cls-86" d="M452.57,494.22l-10.38-23,1.39-.61q5.12,11.5,10.25,23Z"/>
      <path class="cls-87" d="M437.56,545.35c-3.79-6.3-5.36-13.78-10.31-19.45C434,530.61,435.18,538.29,437.56,545.35Z"/>
      <path class="cls-88" d="M455.74,457.86c6.63,2.26,10.29,7.2,12.59,13.38C464.65,466.28,461.15,461.15,455.74,457.86Z"/>
      <path class="cls-89" d="M463,443a80.38,80.38,0,0,0,12.28,10.53A19.83,19.83,0,0,1,463,443Z"/>
      <path class="cls-44" d="M531.94,745.87l-1.17-1a39.9,39.9,0,0,1,14.73-5.51Z"/>
      <path class="cls-90" d="M403.46,439.2H415C410.48,441.7,407,441.36,403.46,439.2Z"/>
      <path class="cls-14" d="M720,132.92c3.9-.36,7.23,1.25,10.24,3.37,3.94,2.79,3.36,7.11-1.15,8.82-5.26,2-10.18.82-14.65-2.31-2.1-1.47-3.88-3.41-3.06-6.29s3.38-2.89,5.63-3.37A21.15,21.15,0,0,1,720,132.92Zm-.21,1.2c-1.77.49-5.42-.28-6.28,3.14-1,3.91,2.72,4.82,5.35,6a12.56,12.56,0,0,0,5.24,1.31c2.59-.09,5.82-.21,6.49-3.4.61-2.91-2.08-4.23-4.24-5.49A11.47,11.47,0,0,0,719.75,134.12Z"/>
      <path d="M555,350c.66,2,1.33,4.06,2,6.1,1,9.82,4.82,18.91,7.3,28.35a18.83,18.83,0,0,1,.93,4.78C560.5,376.46,555.26,363.87,555,350Z"/>
      <path class="cls-57" d="M395.89,724.09c.95,6.11,1.38,12.34,4,18.07l3,6.8c-5.19.12-2.94-5.82-6.48-7.66,1.6,4.68.68,9.28,1.57,13.74l0,0-.94-.1L390,724.08c.56-4.14-1.92-7.77-2-11.8l1.13-1.36c3.87-4.56.9-9.68,1.46-14.52-.87,3.53.09,7.27-1.65,10.67-1.56-4.28-.89-8.71-.88-13.1,1.23-1.87.78-4,1.09-6.07.72-2,1.44-3.94,2.3-6.26,1,2.63-.16,5.33,1.6,7.36-2,8.82-.79,17.76-1,26.65.44,2.91.83,5.82,1.34,8.72.12.69.14,1.94,1.21,1.69C395.17,725.93,395.48,724.78,395.89,724.09Z"/>
      <path class="cls-8" d="M381.07,738c-.31-1.37-.63-2.74-.95-4.11-2.69-11.14-2.86-22.6-4.23-33.9.09-1,.18-1.93.26-2.9,2.34-5.27-1.57-10.05-1.21-15.17,1.28-3.2,1-6.59,1.15-9.92h1l.19,9.08c2.48,6.11,1.45,12.56,1.79,18.87.71,6.14,0,12.39,2.61,18.38,1.27,2.91,1,6.48,1.45,9.76L381,725c.67,5.52,1.75,9.93,3.93,14,.34.73.69,1.46,1,2.2.35,3.37,2.75,6.45,1.25,10.6L384,745Z"/>
      <path class="cls-62" d="M385.94,741.27c-.34-.74-.69-1.47-1-2.21,1.58-4-.21-7.48-1.82-11-.43-3.28-.18-6.85-1.45-9.76-2.61-6-1.9-12.24-2.61-18.38,1.4-2.25.79-4.82,1.12-7.24.69-3.16,1.39-6.33,2.27-10.38,1.45,8.17-.58,15.61,1.48,22.79-.71,10.81,1.77,21,6.21,30.75C388.46,737.48,386.32,738.69,385.94,741.27Z"/>
      <path class="cls-10" d="M390.11,735.87c-4.44-9.77-6.92-19.94-6.21-30.75.32-1,.63-2,1-2.92.87,7.49.21,15.33,5.1,21.88l7.2,30.88,1.68,7.12a55.33,55.33,0,0,1-7.63-17.56c-.52-2,3.9,1.38,2.18-2-.45-.88-.67-1.87-1.12-2.76C391.6,738.44,390.83,737.17,390.11,735.87Z"/>
      <path class="cls-3" d="M390.87,763.11q2.63,4.89,5.26,9.78L395,774c-8-8.51-14-18-15.08-30,.32,0,.63,0,.95.06C383,751.05,385.54,757.8,390.87,763.11Z"/>
      <path class="cls-6" d="M403,757c-.05,3.75-.63,7.59,1.83,10.92,0,2.37-.94,1.93-1.59.36-1.82-4.38-3.44-8.84-5.14-13.26l0,0,2-2.1Z"/>
      <path class="cls-24" d="M380.9,744c-.32,0-.63,0-.95-.06-1.31-2.31-.1-4.14,1.12-6l2.93,7Z"/>
      <path class="cls-91" d="M389.13,687.9c-.31,2,.14,4.2-1.09,6.07l.12-22.91,1.65-1.88C388.58,675.38,389.08,681.65,389.13,687.9Z"/>
      <path class="cls-44" d="M400.05,752.94l-2,2.1c-.89-4.46,0-9.06-1.57-13.74,3.54,1.84,1.29,7.78,6.48,7.66,0,.71,0,1.41,0,2.12Z"/>
      <path class="cls-57" d="M400.05,752.94l2.9-1.86,4,5.91c-1.27,3.75-2.62-.14-3.92,0Z"/>
      <path class="cls-3" d="M396.06,788c-14.6-7.44-25.09-17.68-26.82-35.26-.79-8-4.68-15.51-5.72-23.61-.31-2.46-.88-4.88-1.33-7.31,0-.91,0-1.82,0-2.72l.44,0H363c1.83,1.94.81,5.06,2.88,6.9,1,9.47,3.47,18.62,5.78,27.79.8,3.17.84,6.67,3.35,9.24,3.45,4.3,3.42,10.81,8.79,13.91C387.18,781.41,392.55,783.69,396.06,788Z"/>
      <path class="cls-92" d="M383.82,776.93c-5.37-3.1-5.34-9.61-8.79-13.91-.53-7.49-3.19-14.57-4.14-22l.95-.95q1.64,5.92,3.29,11.86c2.08,6.49,3.25,13.32,7.05,19.18l2.54,3.63Z"/>
      <path class="cls-51" d="M375.89,700c1.37,11.3,1.54,22.76,4.23,33.9l-2,5c-.19-2,.08-4.14-1-6-.44-2.9-.87-5.81-1.31-8.71.27-4.86.68-9.73-1.85-14.23C373.9,706.51,374,703.07,375.89,700Z"/>
      <path class="cls-5" d="M384.72,774.77l-2.54-3.63q-1.79-6.66-3.55-13.32a221.53,221.53,0,0,1,10.33,20Z"/>
      <path class="cls-24" d="M377.12,732.9c1.07,1.89.8,4,1,6-.36,3.68.5,7.49-1.12,11l-1.86-4.13A52.07,52.07,0,0,0,377.12,732.9Z"/>
      <path class="cls-49" d="M375.13,745.84,377,750c.44,1.66,0,2.51-1.86,2q-1.65-5.94-3.29-11.86c2.16.49,1.62,3,3,4.06C374.92,744.72,375,745.28,375.13,745.84Z"/>
      <path class="cls-8" d="M358.06,754c-.33,0-.66-.06-1-.11-5.89-17.12-11.8-34.25-10.12-52.83-.32-.69-.63-1.38-.95-2.08q3-10.18,6.08-20.39c1.65,4.17,1.21,8-.77,12.15-3.26,6.78-2.82,14.18-2.61,21.48,1.67-1.77,1.14-3.93,1.28-6,.23-3.42-.47-7,1.91-10,.41.6.83,1.19,1.25,1.78-2.31,16.16-.68,32.07,3.13,47.83Q357.16,749.94,358.06,754Z"/>
      <path class="cls-74" d="M346,699c.32.7.63,1.39.95,2.08-.38,2.64-4.72,4.24-2.7,7.19,2.2,3.23,1.6,6.48,1.62,9.83-.42-1.7-.84-3.39-1.31-5.27-2.38,7.77-1.54,15,1,22.46,2.15,6.42,5.54,12.28,7.43,18.75-3.19-1.38-4.53-4.24-5.82-7.17-4.38-9.86-6-20.26-6.16-31,0-2,.24-4-.88-5.83-.14-1.85-.28-3.7-.45-6l-3.53,3c-.37-1.35-.74-2.7-1.12-4h0l.8-.1c1.51,1.74,1.82.28,2-.85.33-2,0-4.22,1.16-6.11.64,1.49,1.32.53,2,0,2.51-1.74,2.38-5.36,5-7-.09,4.51-1.5,8.41-5.34,11.28C343.55,700.74,343.55,700.74,346,699Z"/>
      <path class="cls-63" d="M351.89,696.25c-2.38,3-1.68,6.61-1.91,10-.14,2,.39,4.19-1.28,6-.21-7.3-.65-14.7,2.61-21.48,2-4.11,2.42-8,.77-12.15q1.85-5.8,3.7-11.62c1.14,1.1,2.09.32,3.06-.3.39,3.52.77,7,1.16,10.57-3.05,4.14-3.15,9.4-5.29,13.88Z"/>
      <path class="cls-28" d="M367.86,654.83c-.31,1.38-.61,2.77-.92,4.15-.73,1.6-1.49,3.19-2.19,4.81s.3,4.17-2.69,4.31c-.41-2.19-.83-4.38-1.32-6.93L359,666c-.36-1.61.73-3.58-1.12-4.9-1.46,1-1.32,2.61-1.9,3.9-.44-4.59-.83-9.17,4-12a6.56,6.56,0,0,0,1,3.93l.91,1c2.35.18,3.19-1.66,3.77-3.27.78-2.15.12-4.65,1.23-6.8C367.21,650.17,366.58,652.64,367.86,654.83Z"/>
      <path class="cls-60" d="M360.92,656.9a6.56,6.56,0,0,1-1-3.93c2.42-8.37,5.17-16.59,10.15-23.87,1.66-.43,1.56.54,1.23,1.6a6.68,6.68,0,0,0-.25,4.32l-3,5C363.1,644.57,362.16,650.8,360.92,656.9Z"/>
      <path class="cls-10" d="M345.92,689c-2.6,1.68-2.47,5.3-5,7,.45-4.91,3.2-9,4.95-13.41.26-.66.79-1.78,1.71-1,.43.38.19,1.53.25,2.34Q346.88,686.45,345.92,689Z"/>
      <path class="cls-5" d="M355.94,665c.58-1.29.44-2.93,1.9-3.9,1.85,1.32.76,3.29,1.12,4.9a2.62,2.62,0,0,0-.12.68c-1,.62-1.92,1.4-3.06.3C355.83,666.33,355.89,665.67,355.94,665Z"/>
      <path class="cls-70" d="M390,724.08c-4.89-6.55-4.23-14.39-5.1-21.88-.28-10.42,1.6-21-1.85-31.2l.86-1.12c2.19-.16,2.18,1.83,3,3-1.11,13.16-1.92,26.32,1.15,39.36C388,716.31,390.51,719.94,390,724.08Z"/>
      <path class="cls-10" d="M388,712.28c-3.07-13-2.26-26.2-1.15-39.36a10,10,0,0,1,.22-1.9c.19-.61-.51-1.62.68-1.74a13.08,13.08,0,0,1,.43,1.78L388,694c0,4.39-.68,8.82.88,13.1.06,1.28.12,2.56.19,3.85Z"/>
      <path class="cls-32" d="M381.93,655c.64-4.88.78-9.89,4-14l.22.16c.27,6.61-1.15,13.29.83,19.84-1,2.38-1.92,4.77-2.89,7.15-.32-3,.45-6.15-1-9Z"/>
      <path class="cls-36" d="M387,660.94c-2-6.55-.56-13.23-.83-19.84,3.14-.52,2.38,2.86,3.92,3.92C390.23,650.56,388.79,655.79,387,660.94Z"/>
      <path class="cls-92" d="M383.07,659.06c1.45,2.88.68,6,1,9l-.21,1.79L383,671l-1.07-2C382,665.62,381.77,662.25,383.07,659.06Z"/>
      <path class="cls-93" d="M362.15,719.11c0,.9,0,1.81,0,2.72-.06,3.06-.11,6.13-.17,9.2-.29,9.87,1.58,19.44,4,28.93l-.84.93c-3.77-8.16-4.82-17-6.33-25.72q-.47-4-.95-8c.48-4.68-.74-9.47.94-14.07v14.19c3.05-3.28.86-6,2.07-8.26Z"/>
      <path class="cls-18" d="M398,640l1.26-8.16c1.12,3.38,4.63,5.4,4.69,9.1q-1.59,7.92-3.16,15.85C399.82,651.14,399.82,645.42,398,640Z"/>
      <path class="cls-31" d="M406.86,681.33c-1.17,1.74-.89,3.74-1,5.66-.88,1.6-.83,3.71-2.63,4.79-.38-6.35-.8-12.7-1.12-19.06-.1-1.94-.3-4,.92-5.7,1.57,2.07,1.13,4.72,2,7Z"/>
      <path class="cls-42" d="M395.89,724.09c-.41.69-.72,1.84-1.27,2-1.07.25-1.09-1-1.21-1.69-.51-2.9-.9-5.81-1.34-8.72,2.26-4.47-.11-9.44,1.94-14C395.54,709,394.35,716.7,395.89,724.09Z"/>
      <path class="cls-70" d="M383.07,659.06c-1.3,3.19-1.08,6.56-1.14,9.89-1.24,5.29.49,10.89-1.74,16.07v-9.79a50.68,50.68,0,0,1-2.95,5.85c-.06-3-.13-6.05-.19-9.08,1.39-3.71,1-7.88,3-11.46.56-1-.5-1.8-1.13-2.55.34-1,.69-2,1-3h2Z"/>
      <path class="cls-28" d="M373,643c.38,3.32-.79,6.69.17,10.23,1.24-1.08.58-2.26.8-3.26,1.91,3,.27,6,0,8.94-.19,1.81-1.44,3.87,1.13,5.06l-3,.84a3.72,3.72,0,0,0-.19-.93c-2.89-.08-2.76,2.52-3.32,4.2s-2.1,4.17,1.42,4.87c-2.36,4.09-1.58,9-3.35,14.28-1-4.32-1-4.32-3.51-5.07l-.94-2.94c-.13-1.91,2.5-.16,2.76-2.38.69-6,2-11.9,3-17.85C370.53,653.94,371,648.24,373,643Z"/>
      <path class="cls-94" d="M372.11,664.82l3-.84c.22-2.33.09-4.82,2.77-6l1.07,0c.63.75,1.69,1.53,1.13,2.55-2,3.58-1.6,7.75-3,11.46h-1c-.13-.11-.23-.26-.38-.3s-.39,0-.4.07c-.23,1.08-.43,2.17-.64,3.27-1-.32-.05-2-1.48-2V681c-1.74,6.57-.33,13.49-2.18,20,0-6.22-.85-12.41-.11-18.69.46-3.94,2.5-8,.17-12C371.42,668.45,371.76,666.63,372.11,664.82Z"/>
      <path class="cls-7" d="M368,659c-1.05,6-2.33,11.86-3,17.85-.26,2.22-2.89.47-2.76,2.38-2.48,2-2.1,5-2.51,7.69-1.46,0-1.84.89-1.91,2.2-.09,2-1.49,2.22-3.09,2,2.14-4.48,2.24-9.74,5.29-13.88,2.06-2.75,1-6.19,2.06-9.16,3-.14,2-2.73,2.69-4.31s1.46-3.21,2.19-4.81Z"/>
      <path class="cls-95" d="M368,640l3-5,1.85-.91c-1.93,6.85-4.69,13.49-5,20.72-1.28-2.19-.65-4.66-1-7,.1-.62.21-1.24.31-1.86A7.73,7.73,0,0,0,368,640Z"/>
      <path class="cls-96" d="M373,545l-.9,2c-.73-.57-.89-1.81-2.36-1.86,0,4.79,4.78,7.37,5.39,11.76-1.29.87-2.64-1.88-3.91.06q-2.07-7.12-4.13-14.27l1.95-2.58A11.93,11.93,0,0,1,373,545Z"/>
      <path class="cls-31" d="M367.06,542.66q2.07,7.14,4.13,14.27c-2.39,2-2.28-.43-3.05-1.6-.57-.88.91-3.67-2.1-2.43C365.61,549.41,362.08,545.61,367.06,542.66Z"/>
      <path class="cls-8" d="M365.54,567.34c.92,3.79,6.32,5.75,4.39,10.71C366.29,575.37,363.55,572.32,365.54,567.34Z"/>
      <path class="cls-22" d="M367.77,560c4.25,2.49,5.3,7,7.11,11.08L372,573C373,567.9,368.85,564.46,367.77,560Z"/>
      <path class="cls-8" d="M360.78,549.19c2,3.73,1.87,7.2,1,10.84C359.45,554.78,359.43,554.59,360.78,549.19Z"/>
      <path class="cls-35" d="M380,575c-3.57-3.71-5.22-8.35-5.84-13.58,1.27,2.49,2.52,5,3.82,7.46.72,1.36,1,3.5,3.42,2.36A5.89,5.89,0,0,1,380,575Z"/>
      <path class="cls-97" d="M375.1,556.87c-.61-4.39-5.38-7-5.39-11.76,1.47,0,1.63,1.29,2.36,1.86,4.48,8,8.91,16,14.76,23.13-2.15,1.59-2.79-.7-3.52-1.65C380.44,564.69,377.81,560.74,375.1,556.87Z"/>
      <path class="cls-10" d="M333.15,724.69,336,740.11c-3.25-3.76-3.24-8.82-5.19-13.1-1.23-5,0-10,.29-14.93.93-3,1.85-6.05,2.78-9.08C334.28,710.25,331.86,717.41,333.15,724.69Z"/>
      <path class="cls-2" d="M330.81,727c1.95,4.28,1.94,9.34,5.19,13.1.37,2.22,2.39,3.42,3.51,5.5l-3.38.25C334,739.61,329.75,734,330,727Z"/>
      <path class="cls-10" d="M330,727c-.29,7,4,12.61,6.09,18.86.29,1.17.57,2.34.85,3.52-4.56-6.76-8-13.94-8.39-22.27a8.81,8.81,0,0,1,.13-1.35Z"/>
      <path class="cls-10" d="M338.94,696c-1.2,1.89-.83,4.06-1.16,6.11-.17,1.13-.48,2.59-2,.85-.05-4.58,2.69-8.48,3.2-12.92C342.32,692,338.29,694,338.94,696Z"/>
      <path class="cls-98" d="M333.15,724.69c-1.29-7.28,1.13-14.44.73-21.69H335c.38,1.34.75,2.69,1.12,4-1,2.88-1,5.89-1.19,8.88C333.19,718.62,334.79,722,333.15,724.69Z"/>
      <path class="cls-99" d="M345.87,718.1c0-3.35.58-6.6-1.62-9.83-2-2.95,2.32-4.55,2.7-7.19-1.68,18.58,4.23,35.71,10.12,52.83-.31,1.09,0,2.83-2.13,2l-.94-1.55c.94-1.52.27-3-.48-4.21C347.53,740.26,347.11,729.09,345.87,718.1Z"/>
      <path class="cls-9" d="M345.87,718.1c1.24,11,1.66,22.16,7.65,32,.75,1.23,1.42,2.69.48,4.21L353,754c-1.89-6.47-5.28-12.33-7.43-18.75-2.5-7.46-3.34-14.69-1-22.46C345,714.71,345.45,716.4,345.87,718.1Z"/>
      <path class="cls-7" d="M334.92,715.93c.16-3,.18-6,1.19-8.88l3.53-3c.17,2.34.31,4.19.45,6-2.32,4.92-1.17,10.08-.68,15.07.65,6.54,1.58,13.09,4.06,19.33-2.81-3-3.85-6.69-4.61-10.56-1.1-5.62-1-11.43-2.87-16.92Z"/>
      <path class="cls-10" d="M358.88,735.17c1.51,8.72,2.56,17.56,6.33,25.72.05.61.3,1.69.13,1.76-1.59.64-1.87-1.28-3-1.68-1.23-2.51-2.4-5-2.4-7.92-.24-2.44-.6-4.87-.69-7.31C359.15,742.22,357,738.76,358.88,735.17Z"/>
      <path class="cls-53" d="M370,775c-3.23-4.73-8.89-7.61-10.46-13.63-.36-1.4-1.46-2.67-.64-4.25L361,761c2.3,2.72,3.92,5.93,7.29,7.87C370,769.89,370.53,772.62,370,775Z"/>
      <path class="cls-100" d="M361,761l-2.09-3.91-.84-3.08q-.9-4.08-1.79-8.16c.25-.29.49-.59.74-.89l2.95,8.08c0,2.88,1.17,5.41,2.4,7.92Z"/>
      <path class="cls-91" d="M668.82,575c.09-2.27.17-4.55.26-6.83.73-4.55,1.44-9.1,2.17-13.65.18-1.13.21-2.61,1.66-2.68,1.82-.08,1.87,1.57,2,2.87a63.4,63.4,0,0,1-1.9,20.67c-.33,1.24-.72,2.93-2.33,2.78S669.07,576.25,668.82,575Z"/>
      <path class="cls-2" d="M719.75,134.12a11.47,11.47,0,0,1,6.56,1.56c2.16,1.26,4.85,2.58,4.24,5.49-.67,3.19-3.9,3.31-6.49,3.4a12.56,12.56,0,0,1-5.24-1.31c-2.63-1.18-6.34-2.09-5.35-6C714.33,133.84,718,134.61,719.75,134.12Z"/>
      <path class="cls-101" d="M389.11,710.92c-.07-1.29-.13-2.57-.19-3.85,1.74-3.4.78-7.14,1.65-10.67C390,701.24,393,706.36,389.11,710.92Z"/>
      <path class="cls-16" d="M371,701c1.85-6.56.44-13.48,2.18-20,.58.33,1.16.66,1.75,1-.36,5.12,3.55,9.9,1.21,15.17-.32-1.34.37-2.86-.7-4.22l-.91,2.3-1.66-2.83c.64,6.54-1,12.16,1.08,17.61,2.53,4.5,2.12,9.37,1.86,14.23-.42-1.33-.83-2.66-1.25-4l-.7.12V730c-1.95-5.79.45-12.21-2.67-18.51-.15,1.62-.24,2.58-.33,3.54-1.62-4.57-.47-9.32-.92-14Z"/>
      <path class="cls-67" d="M377.24,681.08a50.68,50.68,0,0,0,2.95-5.85q0,4.9,0,9.79l0,7.69c-.33,2.42.28,5-1.12,7.24C378.69,693.64,379.72,687.19,377.24,681.08Z"/>
      <path class="cls-61" d="M374,710c-2-5.45-.44-11.07-1.08-17.61l1.66,2.83.91-2.3c1.07,1.36.38,2.88.7,4.22-.08,1-.17,1.94-.26,2.9C374,703.07,373.9,706.51,374,710Z"/>
      <path class="cls-44" d="M383.09,728.09c1.61,3.49,3.4,6.95,1.82,11-2.18-4.1-3.26-8.51-3.93-14Z"/>
      <path class="cls-102" d="M374.94,681.93c-.59-.32-1.17-.65-1.75-1V673c1.43,0,.44,1.69,1.48,2,.21-1.1.41-2.19.64-3.27,0-.06.28-.11.4-.07s.25.19.38.3C375.9,675.34,376.22,678.73,374.94,681.93Z"/>
      <path class="cls-14" d="M380.15,692.71l0-7.69c2.24-5.18.51-10.78,1.75-16.07l1.07,2c3.45,10.23,1.57,20.78,1.85,31.2-.32,1-.63,1.95-1,2.92-2.06-7.18,0-14.62-1.48-22.79C381.54,686.38,380.84,689.55,380.15,692.71Z"/>
      <path class="cls-12" d="M363.16,682.17c2.52.75,2.52.75,3.51,5.07,1.77-5.25,1-10.19,3.35-14.28l0,0c.94,4.79,1.08,10.12-1.37,13.89-3.25,5-3.42,9.7-2.4,15l-.1,12.36c-.85,3.91,1.47,7.86-.2,11.75-2.07-1.84-1-5-2.88-6.9Q363.1,700.63,363.16,682.17Z"/>
      <path class="cls-49" d="M365.9,726c1.67-3.89-.65-7.84.2-11.75,1.33,1.79,1.52,3.92,2,6a133.58,133.58,0,0,1,2.83,20.79c.95,7.4,3.61,14.48,4.14,22-2.51-2.57-2.55-6.07-3.35-9.24C369.37,744.61,366.85,735.46,365.9,726Z"/>
      <path class="cls-95" d="M363.16,682.17q-.07,18.45-.14,36.92h-.43l-.44,0-1.21-.1c-.05-3.65-.09-7.31-.14-11-.46-7,.37-14.14-1.09-21.13.41-2.7,0-5.67,2.51-7.69C362.53,680.21,362.84,681.19,363.16,682.17Z"/>
      <path class="cls-17" d="M370.89,741.05a133.58,133.58,0,0,0-2.83-20.79c-.44-2.1-.63-4.23-2-6q0-6.18.1-12.36c1.42,2.79,1.43,5.93,2.18,9.07,1.68-3.26-.9-7,1.57-9.86.45,4.64-.7,9.39.92,14a64.6,64.6,0,0,0,.26,7.38c.71,4.9-.16,10.14,3,14.53,1.17,2.31.78,4.77.68,7.2-1.36-1.09-.82-3.57-3-4.06Z"/>
      <path class="cls-103" d="M374.82,744.16c.1-2.43.49-4.89-.68-7.2l-.27-6.94v-9.7l.7-.12c.42,1.33.83,2.66,1.25,4,.43,2.9.86,5.81,1.3,8.71a52.07,52.07,0,0,1-2,12.94C375,745.28,374.92,744.72,374.82,744.16Z"/>
      <path class="cls-70" d="M359.71,686.92c1.46,7,.63,14.09,1.09,21.13-3.25.68-1.17,3.4-1.93,5-1.68,4.6-.46,9.39-.94,14.06-.48,1.52-1,3-1.76,5.55-.17-5-.06-9-1-12.83,2.23-7.6.17-15.15-.44-22.69-.09-1-1,.61-1.56.86-.42-.59-.84-1.18-1.25-1.78l2.82-5.11c1.6.2,3,0,3.09-2C357.87,687.81,358.25,686.94,359.71,686.92Zm-2,21.88,1.08-14.52A23.08,23.08,0,0,0,357.73,708.8Z"/>
      <path class="cls-98" d="M353.14,698c.59-.25,1.47-1.89,1.56-.86.61,7.54,2.67,15.09.44,22.69-.08-.48,0-1.29-.27-1.4-1.61-.71-.86.83-.87,1.2-.38,8.6,1.83,16.89,3,25.31-.25.3-.49.6-.74.89C352.46,730.1,350.83,714.19,353.14,698Z"/>
      <path class="cls-48" d="M362.06,668.1c-1.06,3,0,6.41-2.06,9.16-.39-3.53-.77-7-1.16-10.57A2.62,2.62,0,0,1,359,666l1.78-4.84C361.23,663.72,361.65,665.91,362.06,668.1Z"/>
      <path class="cls-53" d="M367.14,646c-.1.62-.21,1.24-.31,1.86-1.11,2.15-.45,4.65-1.23,6.8-.58,1.61-1.42,3.45-3.77,3.27a48.26,48.26,0,0,1,3.41-11.23C365.57,646,365.87,644.46,367.14,646Z"/>
      <path class="cls-99" d="M367.14,646c-1.27-1.53-1.57,0-1.9.7a48.26,48.26,0,0,0-3.41,11.23l-.91-1c1.24-6.1,2.18-12.33,7.1-16.88A7.73,7.73,0,0,1,367.14,646Z"/>
      <path class="cls-30" d="M357,745c-1.18-8.42-3.39-16.71-3-25.31,0-.37-.74-1.91.87-1.2.25.11.19.92.27,1.4,1,3.86.86,7.82,1,12.83.8-2.51,1.28-4,1.76-5.55.32,2.68.64,5.35.95,8-1.86,3.59.27,7.05.39,10.57.09,2.44.45,4.87.69,7.31Z"/>
      <path class="cls-32" d="M358.87,713.08c.76-1.63-1.32-4.35,1.93-5,.05,3.65.09,7.31.14,11-1.21,2.24,1,5-2.07,8.26Z"/>
      <path class="cls-8" d="M372.11,664.82c-.35,1.81-.69,3.63-1,5.44-.36.92-.73,1.84-1.1,2.75l0,0c-3.52-.7-2-3.18-1.42-4.87s.43-4.28,3.32-4.2A3.72,3.72,0,0,1,372.11,664.82Z"/>
      <path class="cls-104" d="M370,673c.37-.91.74-1.83,1.1-2.75,2.33,4,.29,8.11-.17,12-.74,6.28.07,12.47.11,18.69l-1.06.08c-2.47,2.92.11,6.61-1.57,9.87-.75-3.14-.76-6.28-2.18-9.07-1-5.28-.85-10,2.4-15C371.05,683.13,370.91,677.8,370,673Z"/>
      <path class="cls-98" d="M373.87,730l.27,6.94c-3.17-4.39-2.3-9.63-3-14.53a64.6,64.6,0,0,1-.26-7.38c.09-1,.18-1.92.33-3.54C374.32,717.81,371.92,724.23,373.87,730Z"/>
      <path class="cls-55" d="M357.73,708.8a23.08,23.08,0,0,1,1.08-14.52Z"/>
    </g>
  </g>
</svg>
