<svg xmlns="http://www.w3.org/2000/svg" viewBox="0 0 311.79 264.39"><defs><style>.cls-1{fill:#facb45;}.cls-2{fill:#e47368;}.cls-3{fill:#e47469;}.cls-4{fill:#35b67a;}.cls-5{fill:#36b67b;}.cls-6{fill:#78a7fa;}.cls-7{fill:#79a8fa;}.cls-8{fill:#78a8fa;}</style></defs><title>brain_shapes</title><g id="Layer_2" data-name="Layer 2"><g id="brain_shapes"><path class="cls-1" d="M119.24,205.83c-11.17,0-22.34.12-33.5-.09a14.14,14.14,0,0,1-6.88-2.1c-6.2-3.9-12.32-8-18.13-12.41a10,10,0,0,1-3.52-6.34c-.49-6,0-12-.23-18a6.33,6.33,0,0,1,4-6.68c2.85-1.36,5.45-3.36,8.4-4.37,2.24-.76,5.15-1.18,7.26-.39,18.54,6.91,36.95,14.14,55.42,21.23,3.06,1.18,6.08,2.26,7.59-2.34,2.38-7.23,1.9-9.2-3.31-11.21-7.45-2.87-14.85-5.89-22.37-8.56-3.22-1.14-4.59-2.8-4-6.25.68-4.1,1.12-8.24,1.52-12.38.31-3.16,1.94-4.12,5-4,12.81.53,25.63,1,38.44,1.16a19.67,19.67,0,0,0,9.37-2.31c11.51-6.37,22.84-13.06,34.1-19.85a9.89,9.89,0,0,1,8.91-1c11.25,3.59,22.55,7,33.94,10.16a9.64,9.64,0,0,0,7.17-1.15q18.6-13.06,36.74-26.77c3.78-2.85,5.75-2.48,8.05,1.66,5.5,9.9,11.44,19.54,17.13,29.33,2.51,4.33,1.83,5.47-3.15,5.81C292,130,276.68,131.1,261.4,132c-3.76.23-6.11,1.47-7.31,5.35-1.68,5.39-4.22,10.51-5.83,15.92-.45,1.52.8,5,1.7,5.19,2.74.49,5.7-.22,8.57-.46-.17-1.53.26-3.65-.59-4.49-4.29-4.22.14-7.74.94-11.36.26-1.16,3.71-2.16,5.76-2.27,12.79-.7,25.6-1.09,38.39-1.65,6.42-.28,7.25.64,6.61,7-1,10.27-2.06,20.53-2.76,30.82-.29,4.22-1.37,6.2-6.18,6.13-12.14-.17-24.3.47-36.45.29a16.67,16.67,0,0,1-8.86-3.24,151.64,151.64,0,0,1-13.63-11.73c-3.06-2.85-6.09-3.44-10-1.69-4.38,2-9.2,3.07-13.46,5.27-8.53,4.38-17.42,5.1-26.65,3.81a17.29,17.29,0,0,1-3.83-1.55c.58-1.28.89-2.81,1.8-3.8,2.47-2.7,5.34-5,7.75-7.78,1.07-1.21,2.27-3.35,1.85-4.53s-2.72-2.22-4.27-2.33q-15.18-1.12-30.39-1.68a5.51,5.51,0,0,0-4.08,2.06c-.56.84-.09,3,.65,4,2.82,3.91,6.26,7.41,8.82,11.47,1.19,1.89,1.86,5.1,1.09,7.06-3.23,8.2-7.17,16.11-10.67,24.21-1.24,2.88-3.07,3.88-6.16,3.84C142.57,205.75,130.9,205.83,119.24,205.83Z"/><path class="cls-2" d="M232.79,20.73c-.62,14.94-1.21,29.88-1.94,44.82a9.61,9.61,0,0,1-1.59,4.56c-5.44,8.37-11.11,16.58-16.48,25-1.93,3-3.93,3.26-7.09,2.08-9.83-3.68-8.76-3-8-11.75.64-7.27.5-14.63,1.17-21.9.41-4.41-1.37-6.29-5.36-7.43-8.15-2.31-16.17-5-24.29-7.46-3.73-1.12-4.4-2.92-2.22-6.16,8.34-12.44,16.49-25,25-37.33.92-1.34,3.66-2.33,5.36-2.1q16.31,2.17,32.47,5.16c1.26.24,2.76,2.52,3,4.06.49,2.74.14,5.63.14,8.45Z"/><path class="cls-3" d="M246.15,104.26c-13.76-.69-11.34.63-12.33-12.63-.63-8.45,3.46-14,8.43-19.24,4.36-4.6,5.27-9.65,4.48-15.52-.43-3.12-.11-6.38-.83-9.42-1.83-7.79,2.53-12.36,7.8-16.79,2.07-1.74,3.41-1.41,5,.32Q275.83,49.15,293,67.27c1.9,2,2,3.5-.16,5.34-11.76,9.8-23.25,19.94-35.34,29.31C254.74,104,250,103.55,246.15,104.26Z"/><path class="cls-4" d="M223.4,184.8c9.82,0,19.65.13,29.47-.06,3.76-.08,5.47.83,5.29,5-.31,7-.28,14,0,21,.14,3.63-1.3,4.82-4.68,5.53-15.28,3.23-30.49,6.82-45.77,10.06a7,7,0,0,1-5.28-1.21c-6.47-5.49-12.8-11.16-18.89-17.07a6.43,6.43,0,0,1-1.34-5.41c1.51-4.91,3.83-9.57,5.51-14.43.94-2.74,2.57-3.44,5.23-3.42C203.08,184.86,213.24,184.8,223.4,184.8Z"/><path class="cls-5" d="M209.14,254.24a16.68,16.68,0,0,1-3,2.52c-5.38,2.6-10.75,5.26-16.3,7.43a5.74,5.74,0,0,1-5.06-1.15Q166.85,244.68,149.27,226c-3.28-3.48-2.8-4.77,1.72-5.93,6.42-1.66,12.81-3.5,19.31-4.84,1.73-.35,4.46.21,5.57,1.42,10.5,11.34,20.76,22.91,31,34.43A31.86,31.86,0,0,1,209.14,254.24Z"/><path class="cls-6" d="M148.54,1.1c4.75.43,9.36,3.14,13.89,5.15,11.15,5,11.22,5.11,4.74,15.23-5.65,8.82-11.53,17.5-17.41,26.17-3.61,5.34-3.07,7.2,3.2,9.19,8.87,2.8,17.76,5.59,26.68,8.23,3.19.94,4.29,2.61,4.5,6,.83,13.19-.94,25.81-6.34,37.94-1.31,3-2.92,4.54-6.19,4.71-13,.68-25.9,1.39-38.84,2.27-3.84.26-6.16-.48-5.79-5,.37-4.68-3.67-5.08-6.67-6-3.5-1.08-4.53,1.64-5.38,4.35-1.94,6.19-3.73,12.43-6.05,18.48a10.21,10.21,0,0,1-4.61,5.18,142.18,142.18,0,0,1-17.15,6.79,8.19,8.19,0,0,1-6.27-.77c-8.94-6.08-17.6-12.58-26.45-18.8-2.16-1.51-2.9-2.91-1.49-5.34,3.5-6,6.72-12.27,10.42-18.19.73-1.15,3.32-2,4.74-1.69a92.6,92.6,0,0,1,12.31,4c3.34,1.29,4.94-.06,6.05-3C89.05,89,89,87.58,83,83.53c-4-2.72-4.74-5.19-2.11-9.34,5.55-8.75,2.42-8.16,12.75-4.84,9.81,3.16,19.65,6.29,29.31,9.87,5,1.84,8.69-.5,11.91-3,2.87-2.27.68-4.67-1.91-6.21-10.16-6-20.21-12.26-30.49-18.09-4.09-2.31-5.11-5-4.23-10.66a136.53,136.53,0,0,0,.6-34.1c-.56-5.85,1-7.25,5.32-7.1,5.66.19,11.32,0,17,0"/><path class="cls-7" d="M23.49,107.72c-6,0-12-.12-18,0-4.06.11-5.89-1.43-5.44-5.61,1.05-9.75,2-19.5,3-29.25.35-3.49,1.79-5.09,5.75-5,9.65.33,19.32.22,29,0,1.62,0,3.2-1.55,4.8-2.39-1.07-1.48-1.82-3.62-3.27-4.33C33,58.14,26.6,55.41,20.16,52.71,16.75,51.29,16,49.37,18,46.16c2.53-4.11,4.69-8.45,7.35-12.47a10.28,10.28,0,0,1,4.51-3.62C45.87,23.66,62,17.44,78.1,11.12c3.39-1.33,5-.5,5,3.36-.1,8-.12,16,0,24,.05,3.23-1.24,4.47-4.43,4.44-7.16-.07-14.33-.08-21.48.27-1.81.08-3.55,1.61-5.32,2.48,1,1.68,1.71,3.85,3.18,4.92a103.44,103.44,0,0,0,11.48,7C69.43,59.22,70,60.87,68.39,64Q58.22,83.17,48.5,102.57c-2,3.91-4.52,5.61-9,5.25C34.18,107.4,28.82,107.72,23.49,107.72Z"/><path class="cls-8" d="M23.34,118.85c7.63-2,15,1.73,22.23,7.19,8.62,6.53,17.77,12.34,26.6,18.59a6.05,6.05,0,0,1,2.52,3.74c.08.74-1.93,2-3.21,2.51-5.82,2.45-11.65,4.91-17.62,7a6.36,6.36,0,0,1-5.21-.74C35.31,146.34,22.12,135.39,9,124.39c-1.15-1-1.74-2.59-2.59-3.91,1.6-.54,3.18-1.45,4.81-1.56C14.67,118.68,18.18,118.85,23.34,118.85Z"/></g></g></svg>